<svg width="25" height="35" viewBox="0 0 25 35" fill="none" xmlns="http://www.w3.org/2000/svg">
<path d="M12.25 0C5.4775 0 0 5.4775 0 12.25C0 21.4375 12.25 35 12.25 35C12.25 35 24.5 21.4375 24.5 12.25C24.5 5.4775 19.0225 0 12.25 0ZM3.5 12.25C3.5 7.42 7.42 3.5 12.25 3.5C17.08 3.5 21 7.42 21 12.25C21 17.29 15.96 24.8325 12.25 29.54C8.61 24.8675 3.5 17.2375 3.5 12.25Z" fill="#1C222B"/>
<path d="M12.25 16.625C14.6662 16.625 16.625 14.6662 16.625 12.25C16.625 9.83375 14.6662 7.875 12.25 7.875C9.83375 7.875 7.875 9.83375 7.875 12.25C7.875 14.6662 9.83375 16.625 12.25 16.625Z" fill="#1C222B"/>
</svg>
