<svg width="521" height="63" viewBox="0 0 521 63" fill="none" xmlns="http://www.w3.org/2000/svg">
<path d="M486.491 61.9283H483.015L482.835 38.1663H486.204C487.996 44.5458 490.29 49.3484 493.157 52.574C496.025 55.7997 499.394 57.4125 503.264 57.4125C505.594 57.4125 507.529 56.624 508.963 55.0112C510.432 53.3984 511.185 51.3196 511.221 48.7033C511.257 46.5529 510.719 44.725 509.608 43.2198C508.497 41.7145 506.562 40.2809 503.838 38.9548C503.013 38.5247 501.759 37.9154 500.075 37.0911C495.774 35.0123 492.727 33.292 490.935 31.9301C488.498 30.1381 486.742 28.131 485.631 25.9089C484.52 23.6868 483.982 21.1064 484.018 18.2391C484.09 13.2215 485.631 9.09989 488.57 5.87427C491.509 2.64865 495.236 1 499.752 1C502.261 1 504.913 1.57344 507.673 2.75617C510.432 3.90306 511.974 4.4765 512.296 4.4765C512.834 4.4765 513.3 4.22562 513.694 3.68801C514.088 3.15041 514.518 2.29025 514.948 1.07168H517.995L517.887 19.9953H514.841C513.443 15.1927 511.579 11.5729 509.178 9.17157C506.777 6.77027 503.838 5.58755 500.361 5.58755C497.924 5.58755 495.989 6.26851 494.519 7.66628C493.05 9.0282 492.297 10.8561 492.261 13.114C492.19 16.483 495.81 19.8878 503.121 23.2926L503.372 23.4001C507.243 25.1921 510.002 26.5899 511.651 27.5934C513.3 28.597 514.626 29.6363 515.593 30.6398C517.278 32.4677 518.496 34.4389 519.285 36.5535C520.038 38.7039 520.396 41.1052 520.36 43.829C520.253 49.3843 518.711 53.7926 515.701 57.0182C512.69 60.2439 508.605 61.8925 503.515 61.8925C501.867 61.8925 500.218 61.6416 498.533 61.1757C496.849 60.7098 495.021 59.9213 492.978 58.8461C492.656 58.6669 492.19 58.416 491.616 58.0934C490.362 57.3766 489.538 57.0182 489.107 57.0182C488.498 57.0182 487.961 57.4483 487.495 58.2726C487.065 59.097 486.706 60.3155 486.491 61.9283Z" fill="white"/>
<path d="M486.491 61.9283H483.015L482.835 38.1663H486.204C487.996 44.5458 490.29 49.3484 493.157 52.574C496.025 55.7997 499.394 57.4125 503.264 57.4125C505.594 57.4125 507.529 56.624 508.963 55.0112C510.432 53.3984 511.185 51.3196 511.221 48.7033C511.257 46.5529 510.719 44.725 509.608 43.2198C508.497 41.7145 506.562 40.2809 503.838 38.9548C503.013 38.5247 501.759 37.9154 500.075 37.0911C495.774 35.0123 492.727 33.292 490.935 31.9301C488.498 30.1381 486.742 28.131 485.631 25.9089C484.52 23.6868 483.982 21.1064 484.018 18.2391C484.09 13.2215 485.631 9.09989 488.57 5.87427C491.509 2.64865 495.236 1 499.752 1C502.261 1 504.913 1.57344 507.673 2.75617C510.432 3.90306 511.974 4.4765 512.296 4.4765C512.834 4.4765 513.3 4.22562 513.694 3.68801C514.088 3.15041 514.518 2.29025 514.948 1.07168H517.995L517.887 19.9953H514.841C513.443 15.1927 511.579 11.5729 509.178 9.17157C506.777 6.77027 503.838 5.58755 500.361 5.58755C497.924 5.58755 495.989 6.26851 494.519 7.66628C493.05 9.0282 492.297 10.8561 492.261 13.114C492.19 16.483 495.81 19.8878 503.121 23.2926L503.372 23.4001C507.243 25.1921 510.002 26.5899 511.651 27.5934C513.3 28.597 514.626 29.6363 515.593 30.6398C517.278 32.4677 518.496 34.4389 519.285 36.5535C520.038 38.7039 520.396 41.1052 520.36 43.829C520.253 49.3843 518.711 53.7926 515.701 57.0182C512.69 60.2439 508.605 61.8925 503.515 61.8925C501.867 61.8925 500.218 61.6416 498.533 61.1757C496.849 60.7098 495.021 59.9213 492.978 58.8461C492.656 58.6669 492.19 58.416 491.616 58.0934C490.362 57.3766 489.538 57.0182 489.107 57.0182C488.498 57.0182 487.961 57.4483 487.495 58.2726C487.065 59.097 486.706 60.3155 486.491 61.9283Z" fill="white" stroke="white" stroke-width="0.216" stroke-miterlimit="22.9256"/>
<path d="M475.883 2.39771L475.811 21.8948H472.371C471.797 16.6621 470.328 12.7555 467.927 10.2825C465.561 7.77374 462.156 6.51933 457.712 6.51933C455.203 6.51933 453.555 6.98525 452.659 7.88126C451.798 8.77726 451.333 11.1427 451.261 14.9059L451.046 27.7009H453.949C456.494 27.7009 458.393 26.8407 459.719 25.1204C461.045 23.4001 461.798 20.7479 462.049 17.1639H465.418L464.988 43.0763L461.619 43.0405C461.475 39.2056 460.794 36.3742 459.504 34.5464C458.25 32.7185 456.386 31.8225 453.877 31.8225H450.974L450.723 47.9148C450.652 51.8572 450.974 54.2943 451.655 55.1903C452.336 56.0863 453.805 56.5164 456.028 56.5164C460.758 56.5164 464.378 55.2262 466.923 52.6815C469.432 50.1369 471.403 45.7285 472.801 39.5282H476.17L475.31 60.3872H432.731L432.803 56.1938L434.774 55.9788C436.351 55.8713 437.462 55.3337 438.036 54.4735C438.645 53.5775 438.968 51.3913 439.003 47.8789L439.541 14.8701C439.613 11.3219 439.326 9.09982 438.788 8.23966C438.215 7.34365 437.14 6.84189 435.527 6.73437L433.592 6.59101L433.663 2.39771H475.883Z" fill="white"/>
<path d="M475.883 2.39771L475.811 21.8948H472.371C471.797 16.6621 470.328 12.7555 467.927 10.2825C465.561 7.77374 462.156 6.51933 457.712 6.51933C455.203 6.51933 453.555 6.98525 452.659 7.88126C451.798 8.77726 451.333 11.1427 451.261 14.9059L451.046 27.7009H453.949C456.494 27.7009 458.393 26.8407 459.719 25.1204C461.045 23.4001 461.798 20.7479 462.049 17.1639H465.418L464.988 43.0763L461.619 43.0405C461.475 39.2056 460.794 36.3742 459.504 34.5464C458.25 32.7185 456.386 31.8225 453.877 31.8225H450.974L450.723 47.9148C450.652 51.8572 450.974 54.2943 451.655 55.1903C452.336 56.0863 453.805 56.5164 456.028 56.5164C460.758 56.5164 464.378 55.2262 466.923 52.6815C469.432 50.1369 471.403 45.7285 472.801 39.5282H476.17L475.31 60.3872H432.731L432.803 56.1938L434.774 55.9788C436.351 55.8713 437.462 55.3337 438.036 54.4735C438.645 53.5775 438.968 51.3913 439.003 47.8789L439.541 14.8701C439.613 11.3219 439.326 9.09982 438.788 8.23966C438.215 7.34365 437.14 6.84189 435.527 6.73437L433.592 6.59101L433.663 2.39771H475.883Z" fill="white" stroke="white" stroke-width="0.216" stroke-miterlimit="22.9256"/>
<path d="M403.952 57.8069C408.145 57.8069 411.371 55.5848 413.629 51.1406C415.887 46.6964 417.069 40.1376 417.213 31.5002C417.356 22.8985 416.352 16.3398 414.274 11.8956C412.159 7.45138 409.005 5.22929 404.812 5.22929C400.547 5.22929 397.321 7.45138 395.099 11.8597C392.877 16.2681 391.694 22.8268 391.551 31.5002C391.408 40.1735 392.375 46.6964 394.49 51.1406C396.533 55.5848 399.687 57.8069 403.952 57.8069ZM404.704 1.10767C408.324 1.10767 411.693 1.78863 414.74 3.15056C417.786 4.51249 420.474 6.51954 422.732 9.13587C425.205 11.9672 427.069 15.3004 428.323 19.0994C429.578 22.8985 430.187 27.0201 430.115 31.4643C430.043 35.8727 429.327 39.9584 427.929 43.7933C426.531 47.5924 424.596 50.9255 422.015 53.7569C419.614 56.4091 416.854 58.4161 413.772 59.8139C410.69 61.2117 407.392 61.8926 403.88 61.8926C400.26 61.8926 396.927 61.2117 393.845 59.8139C390.763 58.4161 388.075 56.4091 385.781 53.7569C383.344 50.9614 381.516 47.6999 380.297 43.9367C379.079 40.2093 378.541 36.0519 378.613 31.4643C378.684 26.8768 379.401 22.7193 380.727 18.9919C382.053 15.2645 383.989 11.9672 386.533 9.13587C388.899 6.51954 391.623 4.54833 394.777 3.1864C397.859 1.78863 401.192 1.10767 404.704 1.10767Z" fill="white"/>
<path d="M403.952 57.8069C408.145 57.8069 411.371 55.5848 413.629 51.1406C415.887 46.6964 417.069 40.1376 417.213 31.5002C417.356 22.8985 416.352 16.3398 414.274 11.8956C412.159 7.45138 409.005 5.22929 404.812 5.22929C400.547 5.22929 397.321 7.45138 395.099 11.8597C392.877 16.2681 391.694 22.8268 391.551 31.5002C391.408 40.1735 392.375 46.6964 394.49 51.1406C396.533 55.5848 399.687 57.8069 403.952 57.8069ZM404.704 1.10767C408.324 1.10767 411.693 1.78863 414.74 3.15056C417.786 4.51249 420.474 6.51954 422.732 9.13587C425.205 11.9672 427.069 15.3004 428.323 19.0994C429.578 22.8985 430.187 27.0201 430.115 31.4643C430.043 35.8727 429.327 39.9584 427.929 43.7933C426.531 47.5924 424.596 50.9255 422.015 53.7569C419.614 56.4091 416.854 58.4161 413.772 59.8139C410.69 61.2117 407.392 61.8926 403.88 61.8926C400.26 61.8926 396.927 61.2117 393.845 59.8139C390.763 58.4161 388.075 56.4091 385.781 53.7569C383.344 50.9614 381.516 47.6999 380.297 43.9367C379.079 40.2093 378.541 36.0519 378.613 31.4643C378.684 26.8768 379.401 22.7193 380.727 18.9919C382.053 15.2645 383.989 11.9672 386.533 9.13587C388.899 6.51954 391.623 4.54833 394.777 3.1864C397.859 1.78863 401.192 1.10767 404.704 1.10767Z" fill="white" stroke="white" stroke-width="0.216" stroke-miterlimit="22.9256"/>
<path d="M346.787 2.39771L346.715 6.59101L344.851 6.73437C343.239 6.84189 342.128 7.37949 341.518 8.2755C340.909 9.1715 340.551 11.3936 340.515 14.8701L340.3 27.4142H357.754L357.969 14.8701C358.041 11.3936 357.754 9.1715 357.181 8.2755C356.607 7.37949 355.496 6.84189 353.883 6.73437L351.912 6.59101L351.984 2.39771H375.961L375.889 6.59101L373.954 6.73437C372.305 6.84189 371.194 7.37949 370.585 8.2755C369.975 9.1715 369.653 11.3936 369.581 14.8701L369.044 47.8789C368.972 51.3554 369.259 53.5417 369.832 54.4377C370.406 55.3695 371.517 55.8713 373.094 55.9788L375.065 56.1938L374.993 60.3872H351.016L351.088 56.1938L353.059 55.9788C354.672 55.8713 355.819 55.3337 356.392 54.4377C357.001 53.5417 357.324 51.3554 357.396 47.8789L357.646 32.1092H340.192L339.941 47.8789C339.87 51.3554 340.156 53.5058 340.73 54.4377C341.303 55.3337 342.414 55.8713 344.027 55.9788L345.891 56.1938L345.819 60.3872H321.878L321.95 56.1938L323.921 55.9788C325.498 55.8713 326.609 55.3337 327.182 54.4735C327.792 53.5775 328.114 51.3913 328.15 47.8789L328.688 14.8701C328.759 11.3219 328.473 9.09982 327.935 8.23966C327.361 7.34365 326.286 6.84189 324.673 6.73437L322.738 6.59101L322.81 2.39771H346.787Z" fill="white"/>
<path d="M346.787 2.39771L346.715 6.59101L344.851 6.73437C343.239 6.84189 342.128 7.37949 341.518 8.2755C340.909 9.1715 340.551 11.3936 340.515 14.8701L340.3 27.4142H357.754L357.969 14.8701C358.041 11.3936 357.754 9.1715 357.181 8.2755C356.607 7.37949 355.496 6.84189 353.883 6.73437L351.912 6.59101L351.984 2.39771H375.961L375.889 6.59101L373.954 6.73437C372.305 6.84189 371.194 7.37949 370.585 8.2755C369.975 9.1715 369.653 11.3936 369.581 14.8701L369.044 47.8789C368.972 51.3554 369.259 53.5417 369.832 54.4377C370.406 55.3695 371.517 55.8713 373.094 55.9788L375.065 56.1938L374.993 60.3872H351.016L351.088 56.1938L353.059 55.9788C354.672 55.8713 355.819 55.3337 356.392 54.4377C357.001 53.5417 357.324 51.3554 357.396 47.8789L357.646 32.1092H340.192L339.941 47.8789C339.87 51.3554 340.156 53.5058 340.73 54.4377C341.303 55.3337 342.414 55.8713 344.027 55.9788L345.891 56.1938L345.819 60.3872H321.878L321.95 56.1938L323.921 55.9788C325.498 55.8713 326.609 55.3337 327.182 54.4735C327.792 53.5775 328.114 51.3913 328.15 47.8789L328.688 14.8701C328.759 11.3219 328.473 9.09982 327.935 8.23966C327.361 7.34365 326.286 6.84189 324.673 6.73437L322.738 6.59101L322.81 2.39771H346.787Z" fill="white" stroke="white" stroke-width="0.216" stroke-miterlimit="22.9256"/>
<path d="M284.244 61.9283H280.768L280.588 38.1663H283.957C285.749 44.5458 288.043 49.3484 290.91 52.574C293.778 55.7997 297.147 57.4125 301.017 57.4125C303.347 57.4125 305.282 56.624 306.716 55.0112C308.185 53.3984 308.938 51.3196 308.974 48.7033C309.01 46.5529 308.472 44.725 307.361 43.2198C306.25 41.7145 304.315 40.2809 301.591 38.9548C300.766 38.5247 299.512 37.9154 297.828 37.0911C293.527 35.0123 290.48 33.292 288.688 31.9301C286.251 30.1381 284.495 28.131 283.384 25.9089C282.273 23.6868 281.735 21.1064 281.771 18.2391C281.843 13.2215 283.384 9.09989 286.323 5.87427C289.262 2.64865 292.989 1 297.505 1C300.014 1 302.666 1.57344 305.426 2.75617C308.185 3.90306 309.726 4.4765 310.049 4.4765C310.587 4.4765 311.053 4.22562 311.447 3.68801C311.841 3.15041 312.271 2.29025 312.701 1.07168H315.748L315.64 20.0311H312.594C311.196 15.2286 309.332 11.6087 306.931 9.20741C304.53 6.80611 301.591 5.62339 298.114 5.62339C295.677 5.62339 293.742 6.30435 292.272 7.70212C290.803 9.06405 290.05 10.8919 290.014 13.1498C289.943 16.5188 293.563 19.9236 300.874 23.3284L301.125 23.436C304.996 25.228 307.755 26.6257 309.404 27.6293C311.053 28.6328 312.379 29.6722 313.346 30.6757C315.031 32.5035 316.249 34.4748 317.038 36.5893C317.791 38.7397 318.149 41.141 318.113 43.8649C318.006 49.4201 316.464 53.8285 313.454 57.0541C310.443 60.2797 306.357 61.9283 301.268 61.9283C299.62 61.9283 297.971 61.6775 296.286 61.2115C294.602 60.7456 292.774 59.9571 290.731 58.8819C290.409 58.7027 289.943 58.4518 289.369 58.1293C288.115 57.4125 287.29 57.0541 286.86 57.0541C286.251 57.0541 285.714 57.4842 285.248 58.3085C284.818 59.097 284.495 60.3155 284.244 61.9283Z" fill="white"/>
<path d="M284.244 61.9283H280.768L280.588 38.1663H283.957C285.749 44.5458 288.043 49.3484 290.91 52.574C293.778 55.7997 297.147 57.4125 301.017 57.4125C303.347 57.4125 305.282 56.624 306.716 55.0112C308.185 53.3984 308.938 51.3196 308.974 48.7033C309.01 46.5529 308.472 44.725 307.361 43.2198C306.25 41.7145 304.315 40.2809 301.591 38.9548C300.766 38.5247 299.512 37.9154 297.828 37.0911C293.527 35.0123 290.48 33.292 288.688 31.9301C286.251 30.1381 284.495 28.131 283.384 25.9089C282.273 23.6868 281.735 21.1064 281.771 18.2391C281.843 13.2215 283.384 9.09989 286.323 5.87427C289.262 2.64865 292.989 1 297.505 1C300.014 1 302.666 1.57344 305.426 2.75617C308.185 3.90306 309.726 4.4765 310.049 4.4765C310.587 4.4765 311.053 4.22562 311.447 3.68801C311.841 3.15041 312.271 2.29025 312.701 1.07168H315.748L315.64 20.0311H312.594C311.196 15.2286 309.332 11.6087 306.931 9.20741C304.53 6.80611 301.591 5.62339 298.114 5.62339C295.677 5.62339 293.742 6.30435 292.272 7.70212C290.803 9.06405 290.05 10.8919 290.014 13.1498C289.943 16.5188 293.563 19.9236 300.874 23.3284L301.125 23.436C304.996 25.228 307.755 26.6257 309.404 27.6293C311.053 28.6328 312.379 29.6722 313.346 30.6757C315.031 32.5035 316.249 34.4748 317.038 36.5893C317.791 38.7397 318.149 41.141 318.113 43.8649C318.006 49.4201 316.464 53.8285 313.454 57.0541C310.443 60.2797 306.357 61.9283 301.268 61.9283C299.62 61.9283 297.971 61.6775 296.286 61.2115C294.602 60.7456 292.774 59.9571 290.731 58.8819C290.409 58.7027 289.943 58.4518 289.369 58.1293C288.115 57.4125 287.29 57.0541 286.86 57.0541C286.251 57.0541 285.714 57.4842 285.248 58.3085C284.818 59.097 284.495 60.3155 284.244 61.9283Z" fill="white" stroke="white" stroke-width="0.216" stroke-miterlimit="22.9256"/>
<path d="M228.371 36.6968L228.156 50.3161C228.12 52.2514 228.478 53.6492 229.195 54.5094C229.912 55.3695 231.13 55.8713 232.851 56.0146L235.073 56.2297L235.001 60.423H209.268L209.339 56.2297L211.597 56.0146C213.318 55.9071 214.572 55.4054 215.289 54.5094C216.042 53.6492 216.4 52.2514 216.436 50.3161L216.651 36.6968L205.254 12.5405C204.286 10.5334 203.211 9.02814 201.992 8.06046C200.774 7.09277 199.376 6.62685 197.799 6.62685H197.154L197.225 2.43355H224.213L223.819 6.62685H222.242C220.557 6.62685 219.303 6.87773 218.515 7.37949C217.69 7.88126 217.296 8.70558 217.296 9.85247C217.296 10.3901 217.404 11.0352 217.654 11.7878C217.905 12.5763 218.335 13.6157 218.945 14.9059L226.722 31.4641L234.535 17.4147C235.144 16.3037 235.646 15.1568 236.04 13.9741C236.435 12.7914 236.614 11.8595 236.65 11.1786C236.686 9.70911 236.148 8.56222 235.037 7.77374C233.926 6.98525 232.349 6.59101 230.27 6.59101L230.342 2.39771H248.943L248.871 6.59101C247.33 6.80605 245.968 7.41533 244.821 8.4547C243.674 9.45822 242.348 11.3578 240.807 14.1533L228.371 36.6968Z" fill="white"/>
<path d="M228.371 36.6968L228.156 50.3161C228.12 52.2514 228.478 53.6492 229.195 54.5094C229.912 55.3695 231.13 55.8713 232.851 56.0146L235.073 56.2297L235.001 60.423H209.268L209.339 56.2297L211.597 56.0146C213.318 55.9071 214.572 55.4054 215.289 54.5094C216.042 53.6492 216.4 52.2514 216.436 50.3161L216.651 36.6968L205.254 12.5405C204.286 10.5334 203.211 9.02814 201.992 8.06046C200.774 7.09277 199.376 6.62685 197.799 6.62685H197.154L197.225 2.43355H224.213L223.819 6.62685H222.242C220.557 6.62685 219.303 6.87773 218.515 7.37949C217.69 7.88126 217.296 8.70558 217.296 9.85247C217.296 10.3901 217.404 11.0352 217.654 11.7878C217.905 12.5763 218.335 13.6157 218.945 14.9059L226.722 31.4641L234.535 17.4147C235.144 16.3037 235.646 15.1568 236.04 13.9741C236.435 12.7914 236.614 11.8595 236.65 11.1786C236.686 9.70911 236.148 8.56222 235.037 7.77374C233.926 6.98525 232.349 6.59101 230.27 6.59101L230.342 2.39771H248.943L248.871 6.59101C247.33 6.80605 245.968 7.41533 244.821 8.4547C243.674 9.45822 242.348 11.3578 240.807 14.1533L228.371 36.6968Z" fill="white" stroke="white" stroke-width="0.216" stroke-miterlimit="22.9256"/>
<path d="M166.366 2.39771L166.295 6.59101C164.037 6.73437 162.531 7.23613 161.815 8.0963C161.098 8.95646 160.704 11.2144 160.632 14.9059L160.381 30.2097L172.603 16.8413C173.678 15.6586 174.502 14.5475 175.04 13.4723C175.613 12.3971 175.9 11.4653 175.936 10.641C175.936 9.60159 175.649 8.77726 175.04 8.16798C174.43 7.59453 173.284 7.05693 171.599 6.62685L171.671 2.43355H193.641L193.569 6.62685C191.526 6.80605 189.519 7.41533 187.584 8.38302C185.613 9.38654 183.856 10.6768 182.315 12.3254L173.714 21.5722L188.229 49.7785C189.412 52.1439 190.558 53.7926 191.705 54.7602C192.816 55.7279 194.107 56.2297 195.576 56.2297H196.114L196.042 60.3872H171.814L171.886 56.2297C173.463 56.1939 174.645 55.9071 175.362 55.477C176.115 55.047 176.509 54.366 176.509 53.47C176.509 53.0757 176.473 52.6815 176.33 52.2514C176.222 51.8572 175.936 51.2479 175.506 50.3877L165.614 30.5681L160.309 36.2309L160.13 47.9148C160.058 51.6063 160.417 53.8642 161.134 54.7961C161.85 55.6921 163.32 56.1939 165.506 56.2297L165.435 60.3872H142.103L142.174 56.1222H144.038C145.615 56.1222 146.726 55.6204 147.335 54.6169C147.98 53.6134 148.339 51.3913 148.375 47.9148L148.912 14.8701C148.984 11.3936 148.661 9.1715 148.016 8.13214C147.371 7.09277 146.224 6.59101 144.576 6.59101H142.963L143.034 2.39771H166.366Z" fill="white"/>
<path d="M166.366 2.39771L166.295 6.59101C164.037 6.73437 162.531 7.23613 161.815 8.0963C161.098 8.95646 160.704 11.2144 160.632 14.9059L160.381 30.2097L172.603 16.8413C173.678 15.6586 174.502 14.5475 175.04 13.4723C175.613 12.3971 175.9 11.4653 175.936 10.641C175.936 9.60159 175.649 8.77726 175.04 8.16798C174.43 7.59453 173.284 7.05693 171.599 6.62685L171.671 2.43355H193.641L193.569 6.62685C191.526 6.80605 189.519 7.41533 187.584 8.38302C185.613 9.38654 183.856 10.6768 182.315 12.3254L173.714 21.5722L188.229 49.7785C189.412 52.1439 190.558 53.7926 191.705 54.7602C192.816 55.7279 194.107 56.2297 195.576 56.2297H196.114L196.042 60.3872H171.814L171.886 56.2297C173.463 56.1939 174.645 55.9071 175.362 55.477C176.115 55.047 176.509 54.366 176.509 53.47C176.509 53.0757 176.473 52.6815 176.33 52.2514C176.222 51.8572 175.936 51.2479 175.506 50.3877L165.614 30.5681L160.309 36.2309L160.13 47.9148C160.058 51.6063 160.417 53.8642 161.134 54.7961C161.85 55.6921 163.32 56.1939 165.506 56.2297L165.435 60.3872H142.103L142.174 56.1222H144.038C145.615 56.1222 146.726 55.6204 147.335 54.6169C147.98 53.6134 148.339 51.3913 148.375 47.9148L148.912 14.8701C148.984 11.3936 148.661 9.1715 148.016 8.13214C147.371 7.09277 146.224 6.59101 144.576 6.59101H142.963L143.034 2.39771H166.366Z" fill="white" stroke="white" stroke-width="0.216" stroke-miterlimit="22.9256"/>
<path d="M138.806 40.6393C137.659 47.5206 135.329 52.8249 131.781 56.4806C128.233 60.1363 123.717 62 118.198 62C115.008 62 112.069 61.3549 109.345 60.0288C106.621 58.7027 104.184 56.7315 102.034 54.1152C99.7402 51.3555 98.0557 48.094 96.9446 44.295C95.8336 40.4959 95.296 36.2309 95.3677 31.5358C95.4393 26.9841 96.1203 22.8625 97.4464 19.0993C98.7366 15.3361 100.636 12.0029 103.145 9.13572C105.367 6.51939 107.876 4.54818 110.6 3.22209C113.359 1.86016 116.227 1.1792 119.273 1.1792C120.527 1.1792 121.782 1.32256 123 1.60928C124.219 1.86016 125.33 2.29025 126.405 2.79201C126.728 2.97121 127.23 3.22209 127.839 3.58049C130.168 4.79906 131.674 5.40834 132.426 5.40834C133.143 5.40834 133.717 5.08578 134.147 4.40482C134.577 3.72385 134.792 2.79201 134.792 1.57344H138.197L138.555 25.6581H135.258C133.896 18.7767 132.176 13.7949 130.025 10.7485C127.875 7.70212 125.043 6.19683 121.531 6.19683C117.302 6.19683 114.04 8.34724 111.818 12.6481C109.596 16.9489 108.413 23.2926 108.27 31.715C108.127 40.3167 109.023 46.6963 110.958 50.8896C112.894 55.047 115.904 57.1616 119.99 57.1616C123.431 57.1616 126.441 55.728 128.986 52.8608C131.566 49.9935 133.43 45.9436 134.649 40.7468H138.806V40.6393Z" fill="white"/>
<path d="M138.806 40.6393C137.659 47.5206 135.329 52.8249 131.781 56.4806C128.233 60.1363 123.717 62 118.198 62C115.008 62 112.069 61.3549 109.345 60.0288C106.621 58.7027 104.184 56.7315 102.034 54.1152C99.7402 51.3555 98.0557 48.094 96.9446 44.295C95.8336 40.4959 95.296 36.2309 95.3677 31.5358C95.4393 26.9841 96.1203 22.8625 97.4464 19.0993C98.7366 15.3361 100.636 12.0029 103.145 9.13572C105.367 6.51939 107.876 4.54818 110.6 3.22209C113.359 1.86016 116.227 1.1792 119.273 1.1792C120.527 1.1792 121.782 1.32256 123 1.60928C124.219 1.86016 125.33 2.29025 126.405 2.79201C126.728 2.97121 127.23 3.22209 127.839 3.58049C130.168 4.79906 131.674 5.40834 132.426 5.40834C133.143 5.40834 133.717 5.08578 134.147 4.40482C134.577 3.72385 134.792 2.79201 134.792 1.57344H138.197L138.555 25.6581H135.258C133.896 18.7767 132.176 13.7949 130.025 10.7485C127.875 7.70212 125.043 6.19683 121.531 6.19683C117.302 6.19683 114.04 8.34724 111.818 12.6481C109.596 16.9489 108.413 23.2926 108.27 31.715C108.127 40.3167 109.023 46.6963 110.958 50.8896C112.894 55.047 115.904 57.1616 119.99 57.1616C123.431 57.1616 126.441 55.728 128.986 52.8608C131.566 49.9935 133.43 45.9436 134.649 40.7468H138.806V40.6393Z" fill="white" stroke="white" stroke-width="0.216" stroke-miterlimit="22.9256"/>
<path d="M66.8397 2.39785L66.768 6.59116L64.9043 6.73452C63.3632 6.84204 62.288 7.37964 61.6429 8.23981C60.9977 9.09997 60.6393 10.4977 60.6035 12.4331L60.1734 38.5606C60.1376 41.607 60.1734 44.1875 60.3168 46.2663C60.4601 48.345 60.711 49.6711 60.9977 50.2804C62.2163 52.6817 63.5066 54.3662 64.9043 55.298C66.3021 56.2298 68.1658 56.6958 70.5312 56.6958C74.617 56.6958 77.5559 55.298 79.3838 52.5025C81.2116 49.7069 82.1793 45.0835 82.2868 38.5606L82.6452 16.8056C82.7169 12.9707 82.2151 10.3185 81.2116 8.84909C80.1722 7.37964 78.3444 6.59116 75.6922 6.48364L75.7639 2.32617H94.2574L94.1499 6.51948C91.4977 6.59116 89.6341 7.37964 88.5947 8.84909C87.5195 10.3544 86.946 12.9707 86.9102 16.8056L86.5876 37.0912C86.4801 42.7539 86.1576 46.8039 85.5841 49.241C85.0107 51.6781 84.0788 53.7569 82.7886 55.513C81.2475 57.6635 79.2404 59.2404 76.875 60.2798C74.4737 61.355 71.6423 61.8926 68.345 61.8926C64.3667 61.8926 61.0694 61.3908 58.4531 60.4231C55.8367 59.4555 53.7222 57.9143 52.1452 55.8356C50.7474 54.0078 49.7439 51.8215 49.2063 49.2052C48.6329 46.5888 48.4178 42.5389 48.4895 37.0195L48.8837 12.4331C48.9196 10.4619 48.6329 9.06413 48.0236 8.20397C47.4143 7.3438 46.3391 6.84204 44.8338 6.73452L42.8984 6.59116V2.39785H66.8397Z" fill="white"/>
<path d="M66.8397 2.39785L66.768 6.59116L64.9043 6.73452C63.3632 6.84204 62.288 7.37964 61.6429 8.23981C60.9977 9.09997 60.6393 10.4977 60.6035 12.4331L60.1734 38.5606C60.1376 41.607 60.1734 44.1875 60.3168 46.2663C60.4601 48.345 60.711 49.6711 60.9977 50.2804C62.2163 52.6817 63.5066 54.3662 64.9043 55.298C66.3021 56.2298 68.1658 56.6958 70.5312 56.6958C74.617 56.6958 77.5559 55.298 79.3838 52.5025C81.2116 49.7069 82.1793 45.0835 82.2868 38.5606L82.6452 16.8056C82.7169 12.9707 82.2151 10.3185 81.2116 8.84909C80.1722 7.37964 78.3444 6.59116 75.6922 6.48364L75.7639 2.32617H94.2574L94.1499 6.51948C91.4977 6.59116 89.6341 7.37964 88.5947 8.84909C87.5195 10.3544 86.946 12.9707 86.9102 16.8056L86.5876 37.0912C86.4801 42.7539 86.1576 46.8039 85.5841 49.241C85.0107 51.6781 84.0788 53.7569 82.7886 55.513C81.2475 57.6635 79.2404 59.2404 76.875 60.2798C74.4737 61.355 71.6423 61.8926 68.345 61.8926C64.3667 61.8926 61.0694 61.3908 58.4531 60.4231C55.8367 59.4555 53.7222 57.9143 52.1452 55.8356C50.7474 54.0078 49.7439 51.8215 49.2063 49.2052C48.6329 46.5888 48.4178 42.5389 48.4895 37.0195L48.8837 12.4331C48.9196 10.4619 48.6329 9.06413 48.0236 8.20397C47.4143 7.3438 46.3391 6.84204 44.8338 6.73452L42.8984 6.59116V2.39785H66.8397Z" fill="white" stroke="white" stroke-width="0.216" stroke-miterlimit="22.9256"/>
<path d="M25.8731 2.39771L25.8014 6.59101L23.9377 6.73437C22.3249 6.84189 21.2139 7.37949 20.6046 8.2755C19.9953 9.1715 19.6369 11.3578 19.6011 14.8701L19.0635 47.8789C18.9918 51.7138 19.2785 54.1151 19.9236 55.0828C20.5687 56.0146 21.7873 56.4806 23.651 56.4806C28.6686 56.4806 32.4319 55.0111 34.9765 52.0722C37.4853 49.1333 39.4565 43.9007 40.8543 36.3384H44.1516L43.4348 60.3513H1L1.07168 56.1938L3.04289 55.9788C4.61986 55.8354 5.73091 55.3337 6.30435 54.4735C6.91363 53.6133 7.23619 51.3913 7.27203 47.8789L7.80964 14.8701C7.88132 11.3219 7.5946 9.13566 7.05699 8.23966C6.48355 7.37949 5.40834 6.84189 3.79554 6.73437L1.86016 6.59101L1.96769 2.39771H25.8731Z" fill="white"/>
<path d="M25.8731 2.39771L25.8014 6.59101L23.9377 6.73437C22.3249 6.84189 21.2139 7.37949 20.6046 8.2755C19.9953 9.1715 19.6369 11.3578 19.6011 14.8701L19.0635 47.8789C18.9918 51.7138 19.2785 54.1151 19.9236 55.0828C20.5687 56.0146 21.7873 56.4806 23.651 56.4806C28.6686 56.4806 32.4319 55.0111 34.9765 52.0722C37.4853 49.1333 39.4565 43.9007 40.8543 36.3384H44.1516L43.4348 60.3513H1L1.07168 56.1938L3.04289 55.9788C4.61986 55.8354 5.73091 55.3337 6.30435 54.4735C6.91363 53.6133 7.23619 51.3913 7.27203 47.8789L7.80964 14.8701C7.88132 11.3219 7.5946 9.13566 7.05699 8.23966C6.48355 7.37949 5.40834 6.84189 3.79554 6.73437L1.86016 6.59101L1.96769 2.39771H25.8731Z" fill="white" stroke="white" stroke-width="0.216" stroke-miterlimit="22.9256"/>
</svg>
