<svg width="521" height="63" viewBox="0 0 521 63" fill="none" xmlns="http://www.w3.org/2000/svg">
<path d="M486.491 61.9283H483.015L482.835 38.1663H486.204C487.996 44.5458 490.29 49.3484 493.157 52.574C496.025 55.7997 499.394 57.4125 503.264 57.4125C505.594 57.4125 507.529 56.624 508.963 55.0112C510.432 53.3984 511.185 51.3196 511.221 48.7033C511.257 46.5529 510.719 44.725 509.608 43.2198C508.497 41.7145 506.562 40.2809 503.838 38.9548C503.013 38.5247 501.759 37.9154 500.075 37.0911C495.774 35.0123 492.727 33.292 490.935 31.9301C488.498 30.1381 486.742 28.131 485.631 25.9089C484.52 23.6868 483.982 21.1064 484.018 18.2391C484.09 13.2215 485.631 9.09989 488.57 5.87427C491.509 2.64865 495.236 1 499.752 1C502.261 1 504.913 1.57344 507.673 2.75617C510.432 3.90306 511.974 4.4765 512.296 4.4765C512.834 4.4765 513.3 4.22562 513.694 3.68801C514.088 3.15041 514.518 2.29025 514.948 1.07168H517.995L517.887 19.9953H514.841C513.443 15.1927 511.579 11.5729 509.178 9.17157C506.777 6.77027 503.838 5.58755 500.361 5.58755C497.924 5.58755 495.989 6.26851 494.519 7.66628C493.05 9.0282 492.297 10.8561 492.261 13.114C492.19 16.483 495.81 19.8878 503.121 23.2926L503.372 23.4001C507.243 25.1921 510.002 26.5899 511.651 27.5934C513.3 28.597 514.626 29.6363 515.593 30.6398C517.278 32.4677 518.496 34.4389 519.285 36.5535C520.038 38.7039 520.396 41.1052 520.36 43.829C520.253 49.3843 518.711 53.7926 515.701 57.0182C512.69 60.2439 508.605 61.8925 503.515 61.8925C501.867 61.8925 500.218 61.6416 498.533 61.1757C496.849 60.7098 495.021 59.9213 492.978 58.8461C492.656 58.6669 492.19 58.416 491.616 58.0934C490.362 57.3766 489.538 57.0182 489.107 57.0182C488.498 57.0182 487.961 57.4483 487.495 58.2726C487.065 59.097 486.706 60.3155 486.491 61.9283Z" fill="#1C222B"/>
<path d="M486.491 61.9283H483.015L482.835 38.1663H486.204C487.996 44.5458 490.29 49.3484 493.157 52.574C496.025 55.7997 499.394 57.4125 503.264 57.4125C505.594 57.4125 507.529 56.624 508.963 55.0112C510.432 53.3984 511.185 51.3196 511.221 48.7033C511.257 46.5529 510.719 44.725 509.608 43.2198C508.497 41.7145 506.562 40.2809 503.838 38.9548C503.013 38.5247 501.759 37.9154 500.075 37.0911C495.774 35.0123 492.727 33.292 490.935 31.9301C488.498 30.1381 486.742 28.131 485.631 25.9089C484.52 23.6868 483.982 21.1064 484.018 18.2391C484.09 13.2215 485.631 9.09989 488.57 5.87427C491.509 2.64865 495.236 1 499.752 1C502.261 1 504.913 1.57344 507.673 2.75617C510.432 3.90306 511.974 4.4765 512.296 4.4765C512.834 4.4765 513.3 4.22562 513.694 3.68801C514.088 3.15041 514.518 2.29025 514.948 1.07168H517.995L517.887 19.9953H514.841C513.443 15.1927 511.579 11.5729 509.178 9.17157C506.777 6.77027 503.838 5.58755 500.361 5.58755C497.924 5.58755 495.989 6.26851 494.519 7.66628C493.05 9.0282 492.297 10.8561 492.261 13.114C492.19 16.483 495.81 19.8878 503.121 23.2926L503.372 23.4001C507.243 25.1921 510.002 26.5899 511.651 27.5934C513.3 28.597 514.626 29.6363 515.593 30.6398C517.278 32.4677 518.496 34.4389 519.285 36.5535C520.038 38.7039 520.396 41.1052 520.36 43.829C520.253 49.3843 518.711 53.7926 515.701 57.0182C512.69 60.2439 508.605 61.8925 503.515 61.8925C501.867 61.8925 500.218 61.6416 498.533 61.1757C496.849 60.7098 495.021 59.9213 492.978 58.8461C492.656 58.6669 492.19 58.416 491.616 58.0934C490.362 57.3766 489.538 57.0182 489.107 57.0182C488.498 57.0182 487.961 57.4483 487.495 58.2726C487.065 59.097 486.706 60.3155 486.491 61.9283Z" fill="#1C222B" stroke="#1C222B" stroke-width="0.216" stroke-miterlimit="22.9256"/>
<path d="M475.883 2.39774L475.811 21.8948H472.371C471.797 16.6621 470.328 12.7556 467.927 10.2826C465.561 7.77377 462.156 6.51936 457.712 6.51936C455.203 6.51936 453.555 6.98528 452.659 7.88129C451.798 8.77729 451.333 11.1427 451.261 14.906L451.046 27.7009H453.949C456.494 27.7009 458.393 26.8408 459.719 25.1204C461.045 23.4001 461.798 20.7479 462.049 17.1639H465.418L464.988 43.0764L461.619 43.0405C461.475 39.2056 460.794 36.3742 459.504 34.5464C458.25 32.7185 456.386 31.8225 453.877 31.8225H450.974L450.723 47.9148C450.652 51.8572 450.974 54.2943 451.655 55.1904C452.336 56.0864 453.805 56.5164 456.028 56.5164C460.758 56.5164 464.378 55.2262 466.923 52.6815C469.432 50.1369 471.403 45.7285 472.801 39.5282H476.17L475.31 60.3872H432.731L432.803 56.1939L434.774 55.9788C436.351 55.8713 437.462 55.3337 438.036 54.4735C438.645 53.5775 438.968 51.3913 439.003 47.879L439.541 14.8701C439.613 11.3219 439.326 9.09985 438.788 8.23969C438.215 7.34368 437.14 6.84192 435.527 6.7344L433.592 6.59104L433.663 2.39774H475.883Z" fill="#1C222B"/>
<path d="M475.883 2.39774L475.811 21.8948H472.371C471.797 16.6621 470.328 12.7556 467.927 10.2826C465.561 7.77377 462.156 6.51936 457.712 6.51936C455.203 6.51936 453.555 6.98528 452.659 7.88129C451.798 8.77729 451.333 11.1427 451.261 14.906L451.046 27.7009H453.949C456.494 27.7009 458.393 26.8408 459.719 25.1204C461.045 23.4001 461.798 20.7479 462.049 17.1639H465.418L464.988 43.0764L461.619 43.0405C461.475 39.2056 460.794 36.3742 459.504 34.5464C458.25 32.7185 456.386 31.8225 453.877 31.8225H450.974L450.723 47.9148C450.652 51.8572 450.974 54.2943 451.655 55.1904C452.336 56.0864 453.805 56.5164 456.028 56.5164C460.758 56.5164 464.378 55.2262 466.923 52.6815C469.432 50.1369 471.403 45.7285 472.801 39.5282H476.17L475.31 60.3872H432.731L432.803 56.1939L434.774 55.9788C436.351 55.8713 437.462 55.3337 438.036 54.4735C438.645 53.5775 438.968 51.3913 439.003 47.879L439.541 14.8701C439.613 11.3219 439.326 9.09985 438.788 8.23969C438.215 7.34368 437.14 6.84192 435.527 6.7344L433.592 6.59104L433.663 2.39774H475.883Z" fill="#1C222B" stroke="#1C222B" stroke-width="0.216" stroke-miterlimit="22.9256"/>
<path d="M403.952 57.8068C408.145 57.8068 411.371 55.5847 413.629 51.1405C415.887 46.6963 417.069 40.1375 417.213 31.5C417.356 22.8984 416.352 16.3396 414.274 11.8955C412.159 7.45128 409.005 5.22918 404.812 5.22918C400.547 5.22918 397.321 7.45127 395.099 11.8596C392.877 16.268 391.694 22.8267 391.551 31.5C391.408 40.1734 392.375 46.6963 394.49 51.1405C396.533 55.5847 399.687 57.8068 403.952 57.8068ZM404.704 1.10756C408.324 1.10756 411.693 1.78852 414.74 3.15045C417.786 4.51238 420.474 6.51943 422.732 9.13577C425.205 11.9671 427.069 15.3003 428.323 19.0993C429.578 22.8984 430.187 27.02 430.115 31.4642C430.043 35.8726 429.327 39.9583 427.929 43.7932C426.531 47.5923 424.596 50.9254 422.015 53.7568C419.614 56.409 416.854 58.416 413.772 59.8138C410.69 61.2116 407.392 61.8925 403.88 61.8925C400.26 61.8925 396.927 61.2116 393.845 59.8138C390.763 58.416 388.075 56.409 385.781 53.7568C383.344 50.9613 381.516 47.6998 380.297 43.9366C379.079 40.2092 378.541 36.0518 378.613 31.4642C378.684 26.8767 379.401 22.7192 380.727 18.9918C382.053 15.2644 383.989 11.9671 386.533 9.13577C388.899 6.51943 391.623 4.54822 394.777 3.18629C397.859 1.78852 401.192 1.10756 404.704 1.10756Z" fill="#1C222B"/>
<path d="M403.952 57.8068C408.145 57.8068 411.371 55.5847 413.629 51.1405C415.887 46.6963 417.069 40.1375 417.213 31.5C417.356 22.8984 416.352 16.3396 414.274 11.8955C412.159 7.45128 409.005 5.22918 404.812 5.22918C400.547 5.22918 397.321 7.45127 395.099 11.8596C392.877 16.268 391.694 22.8267 391.551 31.5C391.408 40.1734 392.375 46.6963 394.49 51.1405C396.533 55.5847 399.687 57.8068 403.952 57.8068ZM404.704 1.10756C408.324 1.10756 411.693 1.78852 414.74 3.15045C417.786 4.51238 420.474 6.51943 422.732 9.13577C425.205 11.9671 427.069 15.3003 428.323 19.0993C429.578 22.8984 430.187 27.02 430.115 31.4642C430.043 35.8726 429.327 39.9583 427.929 43.7932C426.531 47.5923 424.596 50.9254 422.015 53.7568C419.614 56.409 416.854 58.416 413.772 59.8138C410.69 61.2116 407.392 61.8925 403.88 61.8925C400.26 61.8925 396.927 61.2116 393.845 59.8138C390.763 58.416 388.075 56.409 385.781 53.7568C383.344 50.9613 381.516 47.6998 380.297 43.9366C379.079 40.2092 378.541 36.0518 378.613 31.4642C378.684 26.8767 379.401 22.7192 380.727 18.9918C382.053 15.2644 383.989 11.9671 386.533 9.13577C388.899 6.51943 391.623 4.54822 394.777 3.18629C397.859 1.78852 401.192 1.10756 404.704 1.10756Z" fill="#1C222B" stroke="#1C222B" stroke-width="0.216" stroke-miterlimit="22.9256"/>
<path d="M346.787 2.39774L346.715 6.59104L344.851 6.7344C343.239 6.84192 342.128 7.37952 341.518 8.27553C340.909 9.17153 340.551 11.3936 340.515 14.8701L340.3 27.4142H357.754L357.969 14.8701C358.041 11.3936 357.754 9.17153 357.181 8.27553C356.607 7.37952 355.496 6.84192 353.883 6.7344L351.912 6.59104L351.984 2.39774H375.961L375.889 6.59104L373.954 6.7344C372.305 6.84192 371.194 7.37952 370.585 8.27553C369.975 9.17153 369.653 11.3936 369.581 14.8701L369.044 47.879C368.972 51.3554 369.259 53.5417 369.832 54.4377C370.406 55.3696 371.517 55.8713 373.094 55.9788L375.065 56.1939L374.993 60.3872H351.016L351.088 56.1939L353.059 55.9788C354.672 55.8713 355.819 55.3337 356.392 54.4377C357.001 53.5417 357.324 51.3554 357.396 47.879L357.646 32.1093H340.192L339.941 47.879C339.87 51.3554 340.156 53.5059 340.73 54.4377C341.303 55.3337 342.414 55.8713 344.027 55.9788L345.891 56.1939L345.819 60.3872H321.878L321.95 56.1939L323.921 55.9788C325.498 55.8713 326.609 55.3337 327.182 54.4735C327.792 53.5775 328.114 51.3913 328.15 47.879L328.688 14.8701C328.759 11.3219 328.473 9.09985 327.935 8.23969C327.361 7.34368 326.286 6.84192 324.673 6.7344L322.738 6.59104L322.81 2.39774H346.787Z" fill="#1C222B"/>
<path d="M346.787 2.39774L346.715 6.59104L344.851 6.7344C343.239 6.84192 342.128 7.37952 341.518 8.27553C340.909 9.17153 340.551 11.3936 340.515 14.8701L340.3 27.4142H357.754L357.969 14.8701C358.041 11.3936 357.754 9.17153 357.181 8.27553C356.607 7.37952 355.496 6.84192 353.883 6.7344L351.912 6.59104L351.984 2.39774H375.961L375.889 6.59104L373.954 6.7344C372.305 6.84192 371.194 7.37952 370.585 8.27553C369.975 9.17153 369.653 11.3936 369.581 14.8701L369.044 47.879C368.972 51.3554 369.259 53.5417 369.832 54.4377C370.406 55.3696 371.517 55.8713 373.094 55.9788L375.065 56.1939L374.993 60.3872H351.016L351.088 56.1939L353.059 55.9788C354.672 55.8713 355.819 55.3337 356.392 54.4377C357.001 53.5417 357.324 51.3554 357.396 47.879L357.646 32.1093H340.192L339.941 47.879C339.87 51.3554 340.156 53.5059 340.73 54.4377C341.303 55.3337 342.414 55.8713 344.027 55.9788L345.891 56.1939L345.819 60.3872H321.878L321.95 56.1939L323.921 55.9788C325.498 55.8713 326.609 55.3337 327.182 54.4735C327.792 53.5775 328.114 51.3913 328.15 47.879L328.688 14.8701C328.759 11.3219 328.473 9.09985 327.935 8.23969C327.361 7.34368 326.286 6.84192 324.673 6.7344L322.738 6.59104L322.81 2.39774H346.787Z" fill="#1C222B" stroke="#1C222B" stroke-width="0.216" stroke-miterlimit="22.9256"/>
<path d="M284.244 61.9283H280.768L280.588 38.1663H283.957C285.749 44.5458 288.043 49.3484 290.91 52.574C293.778 55.7997 297.147 57.4125 301.017 57.4125C303.347 57.4125 305.282 56.624 306.716 55.0112C308.185 53.3984 308.938 51.3196 308.974 48.7033C309.01 46.5529 308.472 44.725 307.361 43.2198C306.25 41.7145 304.315 40.2809 301.591 38.9548C300.766 38.5247 299.512 37.9154 297.828 37.0911C293.527 35.0123 290.48 33.292 288.688 31.9301C286.251 30.1381 284.495 28.131 283.384 25.9089C282.273 23.6868 281.735 21.1064 281.771 18.2391C281.843 13.2215 283.384 9.09989 286.323 5.87427C289.262 2.64865 292.989 1 297.505 1C300.014 1 302.666 1.57344 305.426 2.75617C308.185 3.90306 309.726 4.4765 310.049 4.4765C310.587 4.4765 311.053 4.22562 311.447 3.68801C311.841 3.15041 312.271 2.29025 312.701 1.07168H315.748L315.64 20.0311H312.594C311.196 15.2286 309.332 11.6087 306.931 9.20741C304.53 6.80611 301.591 5.62339 298.114 5.62339C295.677 5.62339 293.742 6.30435 292.272 7.70212C290.803 9.06405 290.05 10.8919 290.014 13.1498C289.943 16.5188 293.563 19.9236 300.874 23.3284L301.125 23.436C304.996 25.228 307.755 26.6257 309.404 27.6293C311.053 28.6328 312.379 29.6722 313.346 30.6757C315.031 32.5035 316.249 34.4748 317.038 36.5893C317.791 38.7397 318.149 41.141 318.113 43.8649C318.006 49.4201 316.464 53.8285 313.454 57.0541C310.443 60.2797 306.357 61.9283 301.268 61.9283C299.62 61.9283 297.971 61.6775 296.286 61.2115C294.602 60.7456 292.774 59.9571 290.731 58.8819C290.409 58.7027 289.943 58.4518 289.369 58.1293C288.115 57.4125 287.29 57.0541 286.86 57.0541C286.251 57.0541 285.714 57.4842 285.248 58.3085C284.818 59.097 284.495 60.3155 284.244 61.9283Z" fill="#1C222B"/>
<path d="M284.244 61.9283H280.768L280.588 38.1663H283.957C285.749 44.5458 288.043 49.3484 290.91 52.574C293.778 55.7997 297.147 57.4125 301.017 57.4125C303.347 57.4125 305.282 56.624 306.716 55.0112C308.185 53.3984 308.938 51.3196 308.974 48.7033C309.01 46.5529 308.472 44.725 307.361 43.2198C306.25 41.7145 304.315 40.2809 301.591 38.9548C300.766 38.5247 299.512 37.9154 297.828 37.0911C293.527 35.0123 290.48 33.292 288.688 31.9301C286.251 30.1381 284.495 28.131 283.384 25.9089C282.273 23.6868 281.735 21.1064 281.771 18.2391C281.843 13.2215 283.384 9.09989 286.323 5.87427C289.262 2.64865 292.989 1 297.505 1C300.014 1 302.666 1.57344 305.426 2.75617C308.185 3.90306 309.726 4.4765 310.049 4.4765C310.587 4.4765 311.053 4.22562 311.447 3.68801C311.841 3.15041 312.271 2.29025 312.701 1.07168H315.748L315.64 20.0311H312.594C311.196 15.2286 309.332 11.6087 306.931 9.20741C304.53 6.80611 301.591 5.62339 298.114 5.62339C295.677 5.62339 293.742 6.30435 292.272 7.70212C290.803 9.06405 290.05 10.8919 290.014 13.1498C289.943 16.5188 293.563 19.9236 300.874 23.3284L301.125 23.436C304.996 25.228 307.755 26.6257 309.404 27.6293C311.053 28.6328 312.379 29.6722 313.346 30.6757C315.031 32.5035 316.249 34.4748 317.038 36.5893C317.791 38.7397 318.149 41.141 318.113 43.8649C318.006 49.4201 316.464 53.8285 313.454 57.0541C310.443 60.2797 306.357 61.9283 301.268 61.9283C299.62 61.9283 297.971 61.6775 296.286 61.2115C294.602 60.7456 292.774 59.9571 290.731 58.8819C290.409 58.7027 289.943 58.4518 289.369 58.1293C288.115 57.4125 287.29 57.0541 286.86 57.0541C286.251 57.0541 285.714 57.4842 285.248 58.3085C284.818 59.097 284.495 60.3155 284.244 61.9283Z" fill="#1C222B" stroke="#1C222B" stroke-width="0.216" stroke-miterlimit="22.9256"/>
<path d="M228.371 36.6968L228.156 50.3161C228.12 52.2515 228.478 53.6492 229.195 54.5094C229.912 55.3696 231.13 55.8713 232.851 56.0147L235.073 56.2297L235.001 60.423H209.268L209.339 56.2297L211.597 56.0147C213.318 55.9072 214.572 55.4054 215.289 54.5094C216.042 53.6492 216.4 52.2515 216.436 50.3161L216.651 36.6968L205.254 12.5405C204.286 10.5335 203.211 9.02817 201.992 8.06049C200.774 7.0928 199.376 6.62688 197.799 6.62688H197.154L197.225 2.43358H224.213L223.819 6.62688H222.242C220.557 6.62688 219.303 6.87776 218.515 7.37952C217.69 7.88129 217.296 8.70561 217.296 9.8525C217.296 10.3901 217.404 11.0352 217.654 11.7879C217.905 12.5764 218.335 13.6157 218.945 14.906L226.722 31.4641L234.535 17.4148C235.144 16.3037 235.646 15.1568 236.04 13.9741C236.435 12.7914 236.614 11.8595 236.65 11.1786C236.686 9.70914 236.148 8.56225 235.037 7.77377C233.926 6.98528 232.349 6.59104 230.27 6.59104L230.342 2.39774H248.943L248.871 6.59104C247.33 6.80608 245.968 7.41536 244.821 8.45473C243.674 9.45825 242.348 11.3578 240.807 14.1533L228.371 36.6968Z" fill="#1C222B"/>
<path d="M228.371 36.6968L228.156 50.3161C228.12 52.2515 228.478 53.6492 229.195 54.5094C229.912 55.3696 231.13 55.8713 232.851 56.0147L235.073 56.2297L235.001 60.423H209.268L209.339 56.2297L211.597 56.0147C213.318 55.9072 214.572 55.4054 215.289 54.5094C216.042 53.6492 216.4 52.2515 216.436 50.3161L216.651 36.6968L205.254 12.5405C204.286 10.5335 203.211 9.02817 201.992 8.06049C200.774 7.0928 199.376 6.62688 197.799 6.62688H197.154L197.225 2.43358H224.213L223.819 6.62688H222.242C220.557 6.62688 219.303 6.87776 218.515 7.37952C217.69 7.88129 217.296 8.70561 217.296 9.8525C217.296 10.3901 217.404 11.0352 217.654 11.7879C217.905 12.5764 218.335 13.6157 218.945 14.906L226.722 31.4641L234.535 17.4148C235.144 16.3037 235.646 15.1568 236.04 13.9741C236.435 12.7914 236.614 11.8595 236.65 11.1786C236.686 9.70914 236.148 8.56225 235.037 7.77377C233.926 6.98528 232.349 6.59104 230.27 6.59104L230.342 2.39774H248.943L248.871 6.59104C247.33 6.80608 245.968 7.41536 244.821 8.45473C243.674 9.45825 242.348 11.3578 240.807 14.1533L228.371 36.6968Z" fill="#1C222B" stroke="#1C222B" stroke-width="0.216" stroke-miterlimit="22.9256"/>
<path d="M166.366 2.39774L166.295 6.59104C164.037 6.7344 162.531 7.23616 161.815 8.09633C161.098 8.95649 160.704 11.2144 160.632 14.906L160.381 30.2097L172.603 16.8413C173.678 15.6586 174.502 14.5476 175.04 13.4724C175.613 12.3972 175.9 11.4653 175.936 10.641C175.936 9.60162 175.649 8.77729 175.04 8.16801C174.43 7.59456 173.284 7.05696 171.599 6.62688L171.671 2.43358H193.641L193.569 6.62688C191.526 6.80608 189.519 7.41536 187.584 8.38305C185.613 9.38658 183.856 10.6768 182.315 12.3255L173.714 21.5722L188.229 49.7785C189.412 52.1439 190.558 53.7926 191.705 54.7603C192.816 55.728 194.107 56.2297 195.576 56.2297H196.114L196.042 60.3872H171.814L171.886 56.2297C173.463 56.1939 174.645 55.9072 175.362 55.4771C176.115 55.047 176.509 54.366 176.509 53.47C176.509 53.0758 176.473 52.6815 176.33 52.2515C176.222 51.8572 175.936 51.2479 175.506 50.3878L165.614 30.5681L160.309 36.2309L160.13 47.9148C160.058 51.6063 160.417 53.8643 161.134 54.7961C161.85 55.6921 163.32 56.1939 165.506 56.2297L165.435 60.3872H142.103L142.174 56.1222H144.038C145.615 56.1222 146.726 55.6204 147.335 54.6169C147.98 53.6134 148.339 51.3913 148.375 47.9148L148.912 14.8701C148.984 11.3936 148.661 9.17153 148.016 8.13217C147.371 7.0928 146.224 6.59104 144.576 6.59104H142.963L143.034 2.39774H166.366Z" fill="#1C222B"/>
<path d="M166.366 2.39774L166.295 6.59104C164.037 6.7344 162.531 7.23616 161.815 8.09633C161.098 8.95649 160.704 11.2144 160.632 14.906L160.381 30.2097L172.603 16.8413C173.678 15.6586 174.502 14.5476 175.04 13.4724C175.613 12.3972 175.9 11.4653 175.936 10.641C175.936 9.60162 175.649 8.77729 175.04 8.16801C174.43 7.59456 173.284 7.05696 171.599 6.62688L171.671 2.43358H193.641L193.569 6.62688C191.526 6.80608 189.519 7.41536 187.584 8.38305C185.613 9.38658 183.856 10.6768 182.315 12.3255L173.714 21.5722L188.229 49.7785C189.412 52.1439 190.558 53.7926 191.705 54.7603C192.816 55.728 194.107 56.2297 195.576 56.2297H196.114L196.042 60.3872H171.814L171.886 56.2297C173.463 56.1939 174.645 55.9072 175.362 55.4771C176.115 55.047 176.509 54.366 176.509 53.47C176.509 53.0758 176.473 52.6815 176.33 52.2515C176.222 51.8572 175.936 51.2479 175.506 50.3878L165.614 30.5681L160.309 36.2309L160.13 47.9148C160.058 51.6063 160.417 53.8643 161.134 54.7961C161.85 55.6921 163.32 56.1939 165.506 56.2297L165.435 60.3872H142.103L142.174 56.1222H144.038C145.615 56.1222 146.726 55.6204 147.335 54.6169C147.98 53.6134 148.339 51.3913 148.375 47.9148L148.912 14.8701C148.984 11.3936 148.661 9.17153 148.016 8.13217C147.371 7.0928 146.224 6.59104 144.576 6.59104H142.963L143.034 2.39774H166.366Z" fill="#1C222B" stroke="#1C222B" stroke-width="0.216" stroke-miterlimit="22.9256"/>
<path d="M138.806 40.6392C137.659 47.5205 135.329 52.8249 131.781 56.4806C128.233 60.1363 123.717 62 118.198 62C115.008 62 112.069 61.3549 109.345 60.0288C106.621 58.7027 104.184 56.7315 102.034 54.1151C99.7402 51.3554 98.0557 48.094 96.9446 44.2949C95.8336 40.4959 95.296 36.2309 95.3677 31.5358C95.4393 26.9841 96.1203 22.8625 97.4464 19.0993C98.7366 15.336 100.636 12.0029 103.145 9.13569C105.367 6.51936 107.876 4.54815 110.6 3.22206C113.359 1.86013 116.227 1.17917 119.273 1.17917C120.527 1.17917 121.782 1.32253 123 1.60925C124.219 1.86013 125.33 2.29021 126.405 2.79198C126.728 2.97118 127.23 3.22206 127.839 3.58046C130.168 4.79903 131.674 5.40831 132.426 5.40831C133.143 5.40831 133.717 5.08575 134.147 4.40479C134.577 3.72382 134.792 2.79198 134.792 1.57341H138.197L138.555 25.658H135.258C133.896 18.7767 132.176 13.7949 130.025 10.7485C127.875 7.70209 125.043 6.1968 121.531 6.1968C117.302 6.1968 114.04 8.34721 111.818 12.648C109.596 16.9489 108.413 23.2926 108.27 31.715C108.127 40.3167 109.023 46.6962 110.958 50.8895C112.894 55.047 115.904 57.1616 119.99 57.1616C123.431 57.1616 126.441 55.728 128.986 52.8607C131.566 49.9935 133.43 45.9436 134.649 40.7467H138.806V40.6392Z" fill="#1C222B"/>
<path d="M138.806 40.6392C137.659 47.5205 135.329 52.8249 131.781 56.4806C128.233 60.1363 123.717 62 118.198 62C115.008 62 112.069 61.3549 109.345 60.0288C106.621 58.7027 104.184 56.7315 102.034 54.1151C99.7402 51.3554 98.0557 48.094 96.9446 44.2949C95.8336 40.4959 95.296 36.2309 95.3677 31.5358C95.4393 26.9841 96.1203 22.8625 97.4464 19.0993C98.7366 15.336 100.636 12.0029 103.145 9.13569C105.367 6.51936 107.876 4.54815 110.6 3.22206C113.359 1.86013 116.227 1.17917 119.273 1.17917C120.527 1.17917 121.782 1.32253 123 1.60925C124.219 1.86013 125.33 2.29021 126.405 2.79198C126.728 2.97118 127.23 3.22206 127.839 3.58046C130.168 4.79903 131.674 5.40831 132.426 5.40831C133.143 5.40831 133.717 5.08575 134.147 4.40479C134.577 3.72382 134.792 2.79198 134.792 1.57341H138.197L138.555 25.658H135.258C133.896 18.7767 132.176 13.7949 130.025 10.7485C127.875 7.70209 125.043 6.1968 121.531 6.1968C117.302 6.1968 114.04 8.34721 111.818 12.648C109.596 16.9489 108.413 23.2926 108.27 31.715C108.127 40.3167 109.023 46.6962 110.958 50.8895C112.894 55.047 115.904 57.1616 119.99 57.1616C123.431 57.1616 126.441 55.728 128.986 52.8607C131.566 49.9935 133.43 45.9436 134.649 40.7467H138.806V40.6392Z" fill="#1C222B" stroke="#1C222B" stroke-width="0.216" stroke-miterlimit="22.9256"/>
<path d="M66.8397 2.39775L66.768 6.59105L64.9043 6.73441C63.3632 6.84193 62.288 7.37953 61.6429 8.2397C60.9977 9.09986 60.6393 10.4976 60.6035 12.433L60.1734 38.5605C60.1376 41.6069 60.1734 44.1874 60.3168 46.2662C60.4601 48.3449 60.711 49.671 60.9977 50.2803C62.2163 52.6816 63.5066 54.366 64.9043 55.2979C66.3021 56.2297 68.1658 56.6957 70.5312 56.6957C74.617 56.6957 77.5559 55.2979 79.3838 52.5024C81.2116 49.7068 82.1793 45.0834 82.2868 38.5605L82.6452 16.8055C82.7169 12.9706 82.2151 10.3184 81.2116 8.84898C80.1722 7.37953 78.3444 6.59105 75.6922 6.48353L75.7639 2.32607H94.2574L94.1499 6.51937C91.4977 6.59105 89.6341 7.37953 88.5947 8.84898C87.5195 10.3543 86.946 12.9706 86.9102 16.8055L86.5876 37.0911C86.4801 42.7538 86.1576 46.8038 85.5841 49.2409C85.0107 51.678 84.0788 53.7568 82.7886 55.5129C81.2475 57.6633 79.2404 59.2403 76.875 60.2797C74.4737 61.3549 71.6423 61.8925 68.345 61.8925C64.3667 61.8925 61.0694 61.3907 58.4531 60.423C55.8367 59.4554 53.7222 57.9142 52.1452 55.8355C50.7474 54.0076 49.7439 51.8214 49.2063 49.2051C48.6329 46.5887 48.4178 42.5388 48.4895 37.0194L48.8837 12.433C48.9196 10.4618 48.6329 9.06402 48.0236 8.20386C47.4143 7.34369 46.3391 6.84193 44.8338 6.73441L42.8984 6.59105V2.39775H66.8397Z" fill="#1C222B"/>
<path d="M66.8397 2.39775L66.768 6.59105L64.9043 6.73441C63.3632 6.84193 62.288 7.37953 61.6429 8.2397C60.9977 9.09986 60.6393 10.4976 60.6035 12.433L60.1734 38.5605C60.1376 41.6069 60.1734 44.1874 60.3168 46.2662C60.4601 48.3449 60.711 49.671 60.9977 50.2803C62.2163 52.6816 63.5066 54.366 64.9043 55.2979C66.3021 56.2297 68.1658 56.6957 70.5312 56.6957C74.617 56.6957 77.5559 55.2979 79.3838 52.5024C81.2116 49.7068 82.1793 45.0834 82.2868 38.5605L82.6452 16.8055C82.7169 12.9706 82.2151 10.3184 81.2116 8.84898C80.1722 7.37953 78.3444 6.59105 75.6922 6.48353L75.7639 2.32607H94.2574L94.1499 6.51937C91.4977 6.59105 89.6341 7.37953 88.5947 8.84898C87.5195 10.3543 86.946 12.9706 86.9102 16.8055L86.5876 37.0911C86.4801 42.7538 86.1576 46.8038 85.5841 49.2409C85.0107 51.678 84.0788 53.7568 82.7886 55.5129C81.2475 57.6633 79.2404 59.2403 76.875 60.2797C74.4737 61.3549 71.6423 61.8925 68.345 61.8925C64.3667 61.8925 61.0694 61.3907 58.4531 60.423C55.8367 59.4554 53.7222 57.9142 52.1452 55.8355C50.7474 54.0076 49.7439 51.8214 49.2063 49.2051C48.6329 46.5887 48.4178 42.5388 48.4895 37.0194L48.8837 12.433C48.9196 10.4618 48.6329 9.06402 48.0236 8.20386C47.4143 7.34369 46.3391 6.84193 44.8338 6.73441L42.8984 6.59105V2.39775H66.8397Z" fill="#1C222B" stroke="#1C222B" stroke-width="0.216" stroke-miterlimit="22.9256"/>
<path d="M25.8731 2.39774L25.8014 6.59104L23.9377 6.7344C22.3249 6.84192 21.2139 7.37952 20.6046 8.27553C19.9953 9.17153 19.6369 11.3578 19.6011 14.8701L19.0635 47.8789C18.9918 51.7138 19.2785 54.1151 19.9236 55.0828C20.5687 56.0147 21.7873 56.4806 23.651 56.4806C28.6686 56.4806 32.4319 55.0111 34.9765 52.0723C37.4853 49.1334 39.4565 43.9007 40.8543 36.3384H44.1516L43.4348 60.3513H1L1.07168 56.1939L3.04289 55.9788C4.61986 55.8355 5.73091 55.3337 6.30435 54.4735C6.91363 53.6134 7.23619 51.3913 7.27203 47.8789L7.80964 14.8701C7.88132 11.3219 7.5946 9.13569 7.05699 8.23969C6.48355 7.37952 5.40834 6.84192 3.79554 6.7344L1.86016 6.59104L1.96769 2.39774H25.8731Z" fill="#1C222B"/>
<path d="M25.8731 2.39774L25.8014 6.59104L23.9377 6.7344C22.3249 6.84192 21.2139 7.37952 20.6046 8.27553C19.9953 9.17153 19.6369 11.3578 19.6011 14.8701L19.0635 47.8789C18.9918 51.7138 19.2785 54.1151 19.9236 55.0828C20.5687 56.0147 21.7873 56.4806 23.651 56.4806C28.6686 56.4806 32.4319 55.0111 34.9765 52.0723C37.4853 49.1334 39.4565 43.9007 40.8543 36.3384H44.1516L43.4348 60.3513H1L1.07168 56.1939L3.04289 55.9788C4.61986 55.8355 5.73091 55.3337 6.30435 54.4735C6.91363 53.6134 7.23619 51.3913 7.27203 47.8789L7.80964 14.8701C7.88132 11.3219 7.5946 9.13569 7.05699 8.23969C6.48355 7.37952 5.40834 6.84192 3.79554 6.7344L1.86016 6.59104L1.96769 2.39774H25.8731Z" fill="#1C222B" stroke="#1C222B" stroke-width="0.216" stroke-miterlimit="22.9256"/>
</svg>
