<svg width="95" height="95" viewBox="0 0 95 95" fill="none" xmlns="http://www.w3.org/2000/svg">
<path d="M53.7817 8.04929C54.8457 8.04929 55.8351 8.08548 56.8059 8.0312C57.4219 8.01311 57.6832 8.17594 57.8326 8.73679C58.4673 11.143 59.4193 13.4407 60.8194 15.5756C64.5343 21.2023 70.9747 23.5723 77.975 21.8898C79.8978 21.4194 81.6712 20.6957 83.2953 19.574C87.2156 24.5493 91.0984 29.4885 95 34.4638C93.8613 35.1151 92.7599 35.7302 91.6771 36.3815C86.7675 39.3667 82.5486 42.9671 79.6738 47.7253C74.4282 56.4276 75.9589 66.1431 83.706 73.597C84.0981 73.977 84.4901 74.3569 84.7141 74.574C84.4527 75.1529 84.1541 75.5872 84.1167 76.0214C84.0981 76.2385 84.6394 76.7089 84.8074 76.6546C85.3301 76.546 85.7968 76.2204 86.4315 75.9309C87.3462 76.5279 88.4476 77.2697 89.605 78.0296C84.9381 82.9688 80.3085 87.8898 75.7349 92.7385C74.0175 91.5987 72.4121 90.4408 70.6946 89.4457C68.2865 88.0526 65.617 87.2023 62.7422 87.0576C58.542 86.8585 54.9578 88.2516 51.8963 90.7484C50.3095 92.051 48.9094 93.5526 47.3787 95C46.8186 94.3849 46.2026 93.6612 45.5306 92.9737C43.0851 90.4408 40.2663 88.3783 36.6074 87.4737C32.2205 86.3701 28.1509 87.2928 24.3614 89.3553C22.8493 90.1875 21.4679 91.2549 20.0491 92.2138C19.8064 92.3766 19.5824 92.5938 19.2838 92.8289C14.6168 87.8717 9.96856 82.9507 5.30163 78.0115C6.23502 77.3964 7.13107 76.8355 8.00845 76.2566C9.50187 76.9983 9.87522 76.8536 10.2299 75.3701C10.8273 75.3882 11.4993 75.4424 11.8353 74.6464C11.5366 74.8273 11.35 74.9358 10.9579 75.171C11.0326 74.5378 11.0886 74.0674 11.1446 73.6151C11.2193 73.597 11.2753 73.5789 11.35 73.5789C11.8167 74.0855 12.302 74.574 12.8807 75.1891C11.518 76.2928 10.1926 77.3602 8.81116 78.4638C12.358 82.227 15.9049 85.972 19.5078 89.8076C19.7504 89.6447 19.9558 89.5181 20.1611 89.3914C23.0546 87.3832 26.1908 85.8454 29.8123 85.2303C35.1513 84.3257 39.8369 85.6464 43.9811 88.7039C45.2132 89.6086 46.3333 90.6579 47.5093 91.6711C56.1152 83.1316 65.4677 82.9145 75.4549 89.8076C79.0204 86.0263 82.5673 82.2632 86.1702 78.4638C85.4795 77.9391 84.8261 77.4687 84.1914 76.9622C79.0018 72.8191 75.5482 67.7533 74.5402 61.4572C73.6255 55.7582 75.0629 50.5115 78.3297 45.6266C81.4846 40.8865 85.8902 37.3042 90.9304 34.2829C91.0798 34.1924 91.2478 34.1019 91.3971 34.0115C91.4345 33.9934 91.4718 33.9391 91.6025 33.8125C88.653 30.0674 85.7035 26.3042 82.866 22.6858C80.7939 23.2286 78.9084 23.898 76.9296 24.2236C69.1079 25.5082 62.1448 22.4325 58.43 16.0279C57.4592 14.3453 56.8059 12.518 56.0218 10.745C55.8725 10.3832 55.7605 10.1299 55.2191 10.1299C51.7096 10.1661 48.1814 10.148 44.6718 10.148C44.5785 10.148 44.4665 10.1842 44.2612 10.2023C44.5038 11.1069 44.7465 11.9934 44.9892 12.8799C45.6052 15.1052 46.2586 17.3125 46.856 19.5559C46.9866 20.0806 47.2293 20.2253 47.808 20.2615C51.0935 20.4967 53.5763 22.6677 53.7817 25.4358C54.0244 28.4391 52.0643 30.9358 48.9841 31.6233C45.9599 32.2927 42.8611 30.8996 41.629 28.2944C40.3969 25.7072 41.3863 22.7039 44.0558 21.1661C44.6532 20.8223 44.7652 20.5329 44.5785 19.9539C44.2238 18.9227 43.9811 17.8552 43.7198 16.9506C42.8237 16.643 42.0584 16.3536 41.1623 16.046C41.8157 15.2861 41.573 14.1825 42.8424 13.7845C42.5251 12.6809 42.2077 11.5411 41.8717 10.4013C41.8344 10.3108 41.7037 10.1661 41.629 10.1661C40.8636 10.148 40.0796 10.1299 39.3142 10.2023C39.1649 10.2203 39.0155 10.6184 38.9409 10.8536C37.9328 13.8207 36.5514 16.6069 34.3299 18.995C30.4657 23.1562 25.5001 24.8931 19.5638 24.4046C18.2944 24.296 17.025 24.0608 15.8116 23.7533C14.6168 23.4457 13.4781 22.9753 12.2087 22.5592C9.29652 26.2681 6.34702 30.0131 3.34152 33.8306C3.62154 34.0115 3.84555 34.1562 4.08823 34.301C9.35253 37.449 13.9448 41.2483 17.081 46.2779C20.8705 52.375 21.7666 58.7796 19.3771 65.5099C19.2838 65.7812 19.0224 66.0164 18.7611 66.3964C18.9851 66.7401 18.8357 67.1743 18.257 67.5904C17.977 67.7895 17.8837 68.2237 17.753 68.5674C17.641 68.8388 17.6223 69.1464 17.5477 69.4358C17.473 69.4539 17.3983 69.472 17.305 69.4901C17.1743 69.2549 17.025 69.0378 16.8383 68.7122C16.7636 68.6941 16.5209 68.6398 16.2969 68.6036C16.0356 69.3092 17.6597 69.4178 16.8569 70.3405C16.5209 70.0691 16.2036 69.7977 15.8862 69.5444C15.8302 69.5806 15.7742 69.6349 15.7182 69.671C15.9982 70.0329 16.2969 70.3947 16.6516 70.8289C16.0916 70.7566 15.6622 70.7204 15.1582 70.6661C15.2142 70.4852 15.2702 70.3043 15.3262 70.1052C14.7288 70.4671 14.7288 70.8289 15.2515 70.9556C15.4942 71.0099 15.7556 71.0099 16.0542 71.046C15.5315 72.6562 14.2435 73.6694 13.1421 74.8635C12.9741 74.7368 12.8621 74.6645 12.7687 74.5921C12.694 74.5197 12.6567 74.4293 12.6567 74.4293C13.0114 73.9046 13.3287 73.4523 13.7208 72.8372C14.2061 72.8191 15.1208 72.9276 15.0648 71.9145C15.0275 71.1184 14.3368 71.0822 13.4034 71.1727C14.0755 70.3947 14.6542 69.7796 15.1582 69.1102C15.3822 68.8207 15.4009 68.4227 15.5875 68.1151C17.5103 64.7681 18.481 61.222 18.313 57.4227C18.089 52.4835 16.0729 48.1595 12.8247 44.2878C9.61387 40.4704 5.54431 37.5214 1.04539 35.0608C0.746708 34.898 0.448025 34.7352 0.168009 34.5723C0.130674 34.5542 0.0933386 34.5 0 34.3914C3.86422 29.4704 7.76577 24.5131 11.686 19.5378C13.6461 20.9128 15.8302 21.6727 18.1824 22.0888C24.5854 23.2286 30.3724 20.9671 33.8632 15.9736C35.4127 13.7483 36.4394 11.3059 37.1301 8.77298C37.2981 8.13976 37.5968 7.95883 38.2688 7.99502C39.2209 8.04929 40.1729 8.01311 41.181 8.01311C40.4156 4.93745 41.2557 2.45883 44.2238 0.866723C46.5573 -0.381633 49.0028 -0.27308 51.2242 1.1381C53.8004 2.82067 54.5284 5.15456 53.7817 8.04929ZM47.416 29.7056C49.1894 29.7236 50.7015 28.7467 51.2989 27.1908C51.8589 25.7253 51.2802 24.0608 49.8988 23.12C49.5628 22.9029 49.3014 22.8306 48.9094 23.0477C48.032 23.5 47.0986 23.5 46.2586 23.0115C45.7919 22.7401 45.4932 22.8486 45.1199 23.0838C43.7571 23.9884 43.1411 25.6348 43.6264 27.0641C44.1678 28.6381 45.6612 29.6694 47.416 29.7056ZM47.4533 8.04929C48.3494 8.04929 49.2641 8.06739 50.1601 8.04929C51.4856 8.0312 51.2989 8.30258 51.6349 6.98186C52.3443 4.26804 49.7308 1.78942 46.7253 2.296C44.1305 2.73021 42.7304 4.95554 43.4211 7.41607C43.5518 7.88647 43.7571 8.10357 44.3172 8.06739C45.3812 8.01311 46.4079 8.04929 47.4533 8.04929Z" fill="#1C222B"/>
<path d="M15.8306 35.3142C16.6333 36.0741 17.4174 36.852 18.2947 37.6843C17.6787 38.1728 17.1373 38.607 16.5213 39.0774C15.7186 38.2994 14.9532 37.5576 14.1318 36.7616C14.7105 36.255 15.2519 35.8027 15.8306 35.3142Z" fill="#1C222B"/>
<path d="M79.0957 35.3503C79.7491 35.8569 80.2905 36.273 80.8692 36.7253C80.0478 37.5214 79.2824 38.2632 78.4424 39.0592C77.8637 38.6069 77.3036 38.1727 76.6689 37.6842C77.5277 36.8339 78.349 36.0559 79.0957 35.3503Z" fill="#1C222B"/>
<path d="M71.3671 66.0165C71.7778 67.0296 72.1698 67.9704 72.5618 68.9655C71.8711 69.2369 71.2177 69.5083 70.4337 69.8158C70.0043 68.7484 69.575 67.7352 69.127 66.6316C69.9297 66.3964 70.6204 66.2155 71.3671 66.0165Z" fill="#1C222B"/>
<path d="M24.4357 46.3503C24.8838 47.4539 25.2945 48.4671 25.7425 49.5345C24.9584 49.7516 24.2864 49.9325 23.5397 50.1496C23.129 49.1727 22.737 48.2319 22.3076 47.2187C22.961 46.9473 23.633 46.6759 24.4357 46.3503Z" fill="#1C222B"/>
<path d="M70.5274 46.3503C71.2928 46.6578 71.9462 46.9292 72.6556 47.2006C72.2635 48.1776 71.8715 49.1184 71.4422 50.1496C70.7328 49.9506 70.0234 49.7516 69.2207 49.5345C69.6687 48.4671 70.0794 47.472 70.5274 46.3503Z" fill="#1C222B"/>
<path d="M67.8203 56.2829C67.9697 55.1612 68.119 54.0938 68.287 52.954C69.0897 53.0806 69.7991 53.1892 70.5645 53.3158C70.4151 54.3652 70.2844 55.3421 70.1351 56.4458C69.4071 56.3915 68.679 56.3553 67.8203 56.2829Z" fill="#1C222B"/>
<path d="M70.5458 62.8322C69.7618 62.9589 69.0524 63.0674 68.231 63.1941C68.0817 62.0543 67.951 60.9868 67.8203 59.9375C67.9883 59.8832 68.063 59.8289 68.1377 59.8289C68.7724 59.7928 69.5564 59.5757 69.9858 59.8289C70.3218 60.028 70.2284 60.824 70.3218 61.3668C70.3965 61.8191 70.4711 62.2714 70.5458 62.8322Z" fill="#1C222B"/>
<path d="M76.2015 41.6283C75.5668 42.5329 74.9507 43.3832 74.316 44.2878C73.6627 43.9441 73.028 43.6184 72.2812 43.2385C72.9533 42.2796 73.6067 41.3569 74.2974 40.3799C74.9694 40.8322 75.5668 41.2122 76.2015 41.6283Z" fill="#1C222B"/>
<path d="M24.5482 69.7977C23.7828 69.4902 23.1294 69.2369 22.4014 68.9655C22.7934 67.9885 23.1667 67.0477 23.5961 66.0165C24.3241 66.2155 25.0148 66.3964 25.8176 66.6135C25.3882 67.6629 24.9962 68.676 24.5482 69.7977Z" fill="#1C222B"/>
<path d="M18.7617 41.6283C19.3964 41.2122 19.9938 40.8322 20.6658 40.3799C21.3565 41.3569 22.0099 42.2615 22.6819 43.2204C21.9912 43.5823 21.3565 43.926 20.6658 44.2878C20.0311 43.4013 19.4151 42.5329 18.7617 41.6283Z" fill="#1C222B"/>
<path d="M22.8118 72.9277C22.1211 73.8866 21.4677 74.7912 20.777 75.7681C20.105 75.3339 19.5263 74.9359 18.8916 74.5198C19.5263 73.6152 20.1237 72.7829 20.777 71.8602C21.4304 72.2221 22.0838 72.5658 22.8118 72.9277Z" fill="#1C222B"/>
<path d="M69.9658 80.2731C69.6858 81.0149 69.4431 81.63 69.2004 82.2632C68.1177 81.9919 67.0723 81.7567 65.9336 81.4672C66.0643 80.8159 66.1949 80.1646 66.363 79.3866C67.5577 79.7123 68.7151 79.9836 69.9658 80.2731Z" fill="#1C222B"/>
<path d="M28.6175 79.4045C28.7855 80.1644 28.9162 80.7976 29.0469 81.4851C27.9455 81.7565 26.8814 82.0098 25.78 82.2993C25.5373 81.6661 25.2947 81.0509 25.0146 80.3091C26.1907 80.0016 27.3481 79.7121 28.6175 79.4045Z" fill="#1C222B"/>
<path d="M27.1427 56.2829C26.284 56.3372 25.5933 56.3915 24.8279 56.4458C24.6786 55.3964 24.5292 54.4013 24.3799 53.3339C25.1266 53.2073 25.836 53.0806 26.6573 52.954C26.8254 54.0938 26.9747 55.1431 27.1427 56.2829Z" fill="#1C222B"/>
<path d="M46.7248 83.2401C47.0235 83.4029 47.2102 83.5115 47.4529 83.6562C47.6769 83.5477 47.9196 83.421 48.2369 83.2582C48.6663 83.801 49.0956 84.3437 49.5436 84.9227C48.8343 85.4293 48.1809 85.9177 47.4902 86.4062C46.8182 85.9177 46.1461 85.4473 45.3994 84.9227C45.8474 84.3618 46.2581 83.8372 46.7248 83.2401Z" fill="#1C222B"/>
<path d="M72.1699 72.9456C72.8606 72.5838 73.4953 72.24 74.186 71.8782C74.8207 72.7647 75.4368 73.615 76.0901 74.5377C75.4741 74.9538 74.9141 75.3338 74.2234 75.7861C73.514 74.8272 72.8606 73.9045 72.1699 72.9456Z" fill="#1C222B"/>
<path d="M55.6669 82.0641C54.6215 82.4622 53.6135 82.8421 52.5494 83.2582C52.2134 82.6612 51.8774 82.0822 51.4854 81.3766C52.6614 80.9243 53.7628 80.5082 54.9575 80.0559C55.2002 80.7796 55.4242 81.4128 55.6669 82.0641Z" fill="#1C222B"/>
<path d="M40.0053 80.0559C41.2 80.5082 42.3014 80.9243 43.4588 81.3585C43.0854 82.028 42.7681 82.625 42.4134 83.2582C41.368 82.8602 40.3786 82.4803 39.2959 82.0822C39.5199 81.4309 39.7439 80.8158 40.0053 80.0559Z" fill="#1C222B"/>
<path d="M85.797 32.9259C85.0503 33.4687 84.3596 33.9753 83.5755 34.5361C83.0902 34.0296 82.6235 33.523 82.2314 33.1069C82.3248 32.6908 82.3808 32.3651 82.4928 31.8585C82.8848 31.6052 83.4635 31.2253 84.1355 30.7911C84.6769 31.4967 85.2183 32.2023 85.797 32.9259Z" fill="#1C222B"/>
<path d="M9.16602 32.9259C9.74471 32.1842 10.2861 31.4967 10.8461 30.7911C11.4808 31.2072 12.0595 31.569 12.5449 31.8766C12.6009 32.2927 12.6382 32.6184 12.6942 33.125C12.3955 33.4506 11.9288 33.9572 11.4248 34.5C10.6781 33.9934 9.95006 33.4868 9.16602 32.9259Z" fill="#1C222B"/>
<path d="M41.5922 19.9901C40.8642 20.9128 40.1735 21.7993 39.4641 22.722C38.8107 22.2335 38.2507 21.8174 37.6533 21.3832C38.3067 20.5509 38.9414 19.7368 39.5948 18.8865C40.2481 19.2302 40.8642 19.5921 41.5922 19.9901Z" fill="#1C222B"/>
<path d="M55.3499 18.8865C56.0032 19.7368 56.6379 20.5329 57.31 21.3832C56.7313 21.8174 56.1713 22.2335 55.5179 22.7401C54.7898 21.8174 54.0991 20.949 53.3711 20.0082C54.0805 19.5921 54.6965 19.2483 55.3499 18.8865Z" fill="#1C222B"/>
<path d="M12.1709 29.1085C12.6189 28.5296 13.0296 27.9868 13.459 27.4803C13.5523 27.3536 13.8137 27.2631 13.963 27.2812C14.6537 27.426 15.3444 27.6069 16.0911 27.8059C15.9231 28.4753 15.7738 29.1085 15.6244 29.778C14.9897 29.7237 14.3177 29.5428 14.1123 30.375C13.4216 29.9227 12.8243 29.5428 12.1709 29.1085Z" fill="#1C222B"/>
<path d="M82.7915 29.1085C82.1382 29.5427 81.5221 29.9226 80.8874 30.3387C80.5514 29.7417 80.0847 29.5427 79.3753 29.8683C79.1887 29.1808 79.0393 28.5838 78.834 27.8058C79.618 27.6068 80.3834 27.4078 81.1488 27.245C81.2235 27.2269 81.3915 27.3354 81.4661 27.4259C81.9142 27.9687 82.3248 28.5295 82.7915 29.1085Z" fill="#1C222B"/>
<path d="M18.4062 82.8782C19.0036 82.4078 19.545 81.9917 19.9743 81.6479C20.497 81.7565 20.9264 81.847 21.3557 81.9193C21.4118 81.847 21.4491 81.7746 21.5051 81.7203C21.8411 82.2993 22.1585 82.8963 22.5318 83.5476C21.7664 83.9456 21.0571 84.3256 20.217 84.7598C19.6383 84.1627 19.0596 83.5657 18.4062 82.8782Z" fill="#1C222B"/>
<path d="M14.6162 78.8438C15.3443 78.2829 16.0163 77.7582 16.763 77.1974C17.1924 77.5411 17.7337 77.9754 18.1631 78.3191C18.1257 78.7895 18.1071 79.1333 18.0697 79.6579C17.6964 79.9474 17.1364 80.3816 16.539 80.852C15.8669 80.1826 15.2882 79.5675 14.6162 78.8438Z" fill="#1C222B"/>
<path d="M80.3268 78.88C79.6548 79.5855 79.0761 80.2007 78.46 80.852C77.8627 80.3997 77.3213 79.9655 76.9106 79.6579C76.8919 79.1513 76.8546 78.8076 76.8359 78.3191C77.228 77.9934 77.7507 77.5592 78.1987 77.1974C78.9267 77.7582 79.5988 78.301 80.3268 78.88Z" fill="#1C222B"/>
<path d="M35.2819 23.6447C35.7859 24.1512 36.2526 24.6578 36.8127 25.2368C35.8046 25.9243 34.8712 26.5575 33.8445 27.2631C33.3965 26.6118 33.0044 26.0509 32.5938 25.472C33.4898 24.8568 34.3485 24.2779 35.2819 23.6447Z" fill="#1C222B"/>
<path d="M61.1186 27.2631C60.0732 26.5575 59.1584 25.9243 58.1504 25.2368C58.6918 24.6578 59.1771 24.1693 59.6811 23.6447C60.5959 24.2598 61.4546 24.8387 62.3693 25.472C61.9773 26.0509 61.5852 26.6118 61.1186 27.2631Z" fill="#1C222B"/>
<path d="M30.4094 28.8552C29.2147 29.199 28.1133 29.5246 26.8999 29.8865C26.6945 29.1447 26.5265 28.5115 26.3398 27.8421C27.4039 27.5345 28.4306 27.2269 29.532 26.9194C29.812 27.5345 30.0921 28.1496 30.4094 28.8552Z" fill="#1C222B"/>
<path d="M65.4301 26.9375C65.5608 26.9375 65.6168 26.9194 65.6541 26.9194C66.6248 27.2088 67.5956 27.5164 68.6223 27.824C68.4543 28.4572 68.3049 29.0723 68.0996 29.8503C66.9049 29.5065 65.7848 29.1809 64.5527 28.8371C64.8888 28.1496 65.1501 27.5345 65.4301 26.9375Z" fill="#1C222B"/>
<path d="M72.4492 83.5478C72.7852 82.9327 73.1026 82.3718 73.3453 81.9195C73.9053 81.8471 74.3347 81.7928 74.764 81.7386C74.7827 81.6662 74.7827 81.5938 74.8014 81.5396C75.3614 81.9738 75.9214 82.408 76.5375 82.8784C75.9961 83.4573 75.5107 84.0182 74.9694 84.5247C74.876 84.6152 74.5587 84.6514 74.4093 84.579C73.756 84.2715 73.1399 83.9096 72.4492 83.5478Z" fill="#1C222B"/>
<path d="M53.7258 16.0641C53.0164 16.3535 52.363 16.6249 51.7097 16.9144C51.7283 16.8239 51.747 16.7516 51.7657 16.6611C51.355 16.4621 50.9256 16.2631 50.5149 16.0641C50.4029 16.0098 50.3283 15.9193 50.2536 15.8289C50.2163 15.7746 50.2163 15.6841 50.2349 15.6118C50.2909 15.069 50.1789 14.1644 50.4403 14.0739C51.075 13.8387 51.8777 13.9654 52.6244 13.9654C52.7364 13.9654 52.8671 14.1282 52.9231 14.2368C53.1844 14.8338 53.4271 15.4128 53.7258 16.0641Z" fill="#1C222B"/>
<path d="M58.7285 79.2418C59.9046 79.1875 60.95 79.1151 61.9954 79.097C62.1447 79.097 62.4247 79.3684 62.4434 79.5313C62.4994 80.0559 62.4621 80.5806 62.4621 81.1234C61.286 81.1957 60.2219 81.2681 59.0832 81.3405C58.9712 80.6711 58.8592 80.0559 58.7285 79.2418Z" fill="#1C222B"/>
<path d="M35.898 81.3405C34.7219 81.2681 33.6952 81.2138 32.5005 81.1234C32.5005 80.5806 32.4631 80.0378 32.5191 79.4951C32.5378 79.3503 32.8365 79.097 33.0045 79.097C34.0312 79.1151 35.058 79.1694 36.234 79.2237C36.1033 79.9836 36.01 80.6349 35.898 81.3405Z" fill="#1C222B"/>
<path d="M72.0577 28.3306C73.1964 28.3306 74.2418 28.3306 75.3992 28.3306C75.4552 28.9638 75.5112 29.597 75.5672 30.3388C74.3351 30.3388 73.1591 30.3388 71.8896 30.3388C71.9643 29.6875 72.0017 29.0543 72.0577 28.3306Z" fill="#1C222B"/>
<path d="M23.0926 30.3569C21.8232 30.3569 20.6658 30.3569 19.415 30.3569C19.471 29.6151 19.527 28.9638 19.5831 28.3125C20.7404 28.3125 21.7858 28.3125 22.9059 28.3125C22.9432 28.9819 23.0179 29.6151 23.0926 30.3569Z" fill="#1C222B"/>
<path d="M25.9672 61.7467C25.8552 61.9457 25.5938 62.3075 25.6311 62.3256C25.9298 62.5246 26.2845 62.6875 26.6579 62.8684C26.5459 63.194 26.4525 63.2121 25.7245 63.0131C25.3325 62.9046 24.9218 62.8141 24.4551 62.7237C24.5858 61.7648 24.7164 60.7697 24.8471 59.7023C25.5938 59.7565 26.3032 59.7927 27.1246 59.847C27.0499 60.6069 27.0126 61.3306 26.8819 62.0362C26.8072 62.5427 26.3779 62.4885 25.8925 62.398C25.9858 62.1809 26.0605 62 26.1165 61.8371C26.0792 61.801 26.0232 61.7648 25.9672 61.7467Z" fill="#1C222B"/>
<path d="M46.6504 16.0279C46.6504 15.3223 46.6504 14.6891 46.6504 14.0197C47.1918 14.0197 47.7144 14.0197 48.2931 14.0197C48.2931 14.671 48.2931 15.3223 48.2931 16.0279C47.7518 16.0279 47.2291 16.0279 46.6504 16.0279Z" fill="#1C222B"/>
<path d="M85.0683 74.9177C85.3857 75.3338 85.759 75.6052 85.7217 75.8223C85.6844 76.0575 85.2737 76.4194 85.031 76.4194C84.807 76.4194 84.415 76.0394 84.3776 75.8042C84.359 75.5871 84.7323 75.3338 85.0683 74.9177Z" fill="#1C222B"/>
<path d="M13.4781 73.2894C13.03 73.597 12.7687 73.8865 12.5073 73.9046C12.2833 73.9227 12.022 73.597 11.7793 73.4161C12.022 73.1809 12.246 72.8552 12.5447 72.7467C12.694 72.6743 13.03 73 13.4781 73.2894Z" fill="#1C222B"/>
<path d="M15.1399 72.0231C14.6732 72.3125 14.3932 72.6201 14.1879 72.5839C13.9265 72.5296 13.7212 72.204 13.4785 71.9869C13.7025 71.7879 13.9079 71.4441 14.1319 71.426C14.3932 71.4441 14.6732 71.7336 15.1399 72.0231Z" fill="#1C222B"/>
<path d="M9.44608 75.153C9.63276 75.4424 9.89411 75.6776 9.8381 75.7862C9.70743 76.0576 9.48342 76.347 9.2034 76.4556C9.07273 76.5099 8.73671 76.2023 8.5127 76.0576C8.79271 75.8043 9.05406 75.5329 9.44608 75.153Z" fill="#1C222B"/>
<path d="M17.6597 63.3207C17.6597 63.3207 16.0542 71.4079 5.32031 78.0477C5.32031 78.0477 11.686 76.347 11.7607 76.1118C11.854 75.8766 17.753 72.2039 19.8625 63.8996" fill="#1C222B"/>
<path d="M27.1242 59.847L26.7695 63.2845L24.3613 63.0493L24.772 59.7023L27.1242 59.847Z" fill="#1C222B"/>
<path d="M87.1405 76.4195C87.1405 76.4195 85.0497 74.9178 84.3777 74.2665C83.7057 73.6152 83.127 75.0987 83.127 75.0987L83.799 76.6547L85.8151 77.1974L87.1405 76.4195Z" fill="#1C222B"/>
<path d="M34.1619 49.0461V58.4359H32.2951V50.9819L30.4844 52.0675V50.0954L32.2951 49.0461H34.1619Z" fill="#1C222B"/>
<path d="M40.3036 58.6167C39.2768 58.6167 38.2128 58.273 37.5221 57.4769C36.8314 56.6447 36.7007 55.9572 36.7007 54.8898V52.574C36.7007 51.5246 36.8127 50.8371 37.5221 49.9687C38.1568 49.245 39.2022 48.8108 40.3036 48.8289C41.3303 48.8108 42.3757 49.1726 43.085 49.9687C43.7944 50.7647 43.9064 51.4884 43.9064 52.574V54.8898C43.9064 55.9029 43.7944 56.6809 43.085 57.4769C42.3943 58.2549 41.4049 58.6167 40.3036 58.6167ZM40.3036 50.5296C39.7062 50.5115 39.1088 50.8733 38.8101 51.3799C38.5861 51.7236 38.5861 52.1036 38.5861 52.5921V54.9078C38.5861 55.3601 38.5675 55.7944 38.8475 56.1924C39.1648 56.6628 39.7249 56.9703 40.3036 56.9703C40.9009 56.9884 41.461 56.6628 41.7783 56.1924C42.0396 55.8125 42.0396 55.4687 42.0396 54.9078V52.5921C42.0396 52.1217 42.0583 51.8322 41.8343 51.398C41.5356 50.8552 40.9196 50.5115 40.3036 50.5296Z" fill="#1C222B"/>
<path d="M49.3758 58.6167C48.3491 58.6167 47.285 58.273 46.5943 57.4769C45.9036 56.6447 45.7729 55.9572 45.7729 54.8898V52.574C45.7729 51.5246 45.885 50.8371 46.5943 49.9687C47.229 49.245 48.2744 48.8108 49.3758 48.8289C50.4025 48.8108 51.4479 49.1726 52.1573 49.9687C52.8667 50.7647 52.9787 51.4884 52.9787 52.574V54.8898C52.9787 55.9029 52.8667 56.6809 52.1573 57.4769C51.4666 58.2549 50.4772 58.6167 49.3758 58.6167ZM49.3758 50.5296C48.7785 50.5115 48.1811 50.8733 47.8824 51.3799C47.6584 51.7236 47.6584 52.1036 47.6584 52.5921V54.9078C47.6584 55.3601 47.6397 55.7944 47.9197 56.1924C48.2371 56.6628 48.7971 56.9703 49.3758 56.9703C49.9732 56.9884 50.5332 56.6628 50.8506 56.1924C51.1119 55.8125 51.1119 55.4687 51.1119 54.9078V52.5921C51.1119 52.1217 51.1306 51.8322 50.9066 51.398C50.6079 50.8552 49.9919 50.5115 49.3758 50.5296Z" fill="#1C222B"/>
<path d="M54.7334 51.199C54.7334 49.9145 55.8721 48.847 57.1602 48.847C58.4856 48.847 59.587 49.8964 59.587 51.199C59.587 52.5017 58.5043 53.551 57.1602 53.551C55.8161 53.551 54.7334 52.5017 54.7334 51.199ZM55.1254 57.2599L63.6006 49.0461L64.814 50.2401L56.3388 58.4359L55.1254 57.2599ZM58.2243 51.199C58.2243 50.6201 57.7389 50.1497 57.1415 50.1497C56.5442 50.1497 56.0588 50.6201 56.0588 51.199C56.0588 51.778 56.5442 52.2484 57.1415 52.2484C57.7389 52.2484 58.2243 51.778 58.2243 51.199ZM60.3711 56.2829C60.3711 54.9984 61.5098 53.9309 62.7979 53.9309C64.1233 53.9309 65.2247 54.9803 65.2247 56.2829C65.2247 57.5855 64.1419 58.6349 62.7979 58.6349C61.4724 58.6349 60.3711 57.5855 60.3711 56.2829ZM63.8806 56.2829C63.8806 55.704 63.3952 55.2336 62.7979 55.2336C62.2005 55.2336 61.7151 55.704 61.7151 56.2829C61.7151 56.8619 62.2005 57.3322 62.7979 57.3322C63.3952 57.3322 63.8806 56.8619 63.8806 56.2829Z" fill="#1C222B"/>
</svg>
