<svg width="96" height="80" viewBox="0 0 96 80" fill="none" xmlns="http://www.w3.org/2000/svg">
<path d="M1.99997 10.9974L1.99997 4.80138C1.99997 3.25238 3.19663 2 4.67671 2L90.8677 2C92.3478 2 93.5444 3.25239 93.5444 4.80139L93.5444 11.0304L1.99997 11.0303L1.99997 10.9974Z" stroke="#1C222B" stroke-width="3" stroke-miterlimit="10"/>
<path d="M93.5132 10.9973L93.5132 32.2879C93.5132 33.9028 92.285 35.1881 90.742 35.1881L85.483 35.1881C85.483 35.1881 73.2015 22.3676 57.6449 35.1881L4.70847 16.3694C3.10242 15.8091 2.00022 14.1942 2.00022 12.4145L2.00022 10.9973" stroke="#1C222B" stroke-width="3" stroke-miterlimit="10"/>
<path d="M48.1667 10.9973C48.1667 10.9973 48.954 19.5004 41.8055 19.5004C34.6571 19.5004 32.5157 19.5004 32.5157 19.5004C32.5157 19.5004 24.5799 18.3798 25.8711 23.9167" stroke="#1C222B" stroke-width="3" stroke-miterlimit="10"/>
<path d="M43.6001 25.4327L40.199 28.9592" stroke="#1C222B" stroke-width="3" stroke-miterlimit="10" stroke-linecap="round" stroke-linejoin="round"/>
<path d="M51.6934 27.1796L47.5995 31.497" stroke="#1C222B" stroke-width="3" stroke-miterlimit="10" stroke-linecap="round" stroke-linejoin="round"/>
<path d="M81.1692 10.9974C81.1692 10.9974 81.5156 23.4883 93.7026 24.1145" stroke="#1C222B" stroke-width="3" stroke-miterlimit="10"/>
<path d="M93.7344 68.9696L93.7344 75.1986C93.7344 76.7476 92.5377 78 91.0576 78L4.86666 78C3.38658 78 2.18992 76.7476 2.18992 75.1986L2.18992 68.9696L93.7344 68.9696Z" stroke="#1C222B" stroke-width="3" stroke-miterlimit="10"/>
<path d="M2.22142 68.9696L2.22142 47.6791C2.22142 46.0641 3.44956 44.7788 4.99262 44.7788L10.2516 44.7788C10.2516 44.7788 22.5331 57.5993 38.0897 44.7788L91.0261 63.5975C92.6322 64.1578 93.7344 65.7727 93.7344 67.5524L93.7344 68.9696" stroke="#1C222B" stroke-width="3" stroke-miterlimit="10"/>
<path d="M47.5364 68.9696C47.5364 68.9696 46.7491 60.4666 53.8976 60.4666C61.0461 60.4666 63.1875 60.4666 63.1875 60.4666C63.1875 60.4666 71.1232 61.5872 69.8321 56.0503" stroke="#1C222B" stroke-width="3" stroke-miterlimit="10"/>
<path d="M52.1348 54.5344L55.5044 51.0079" stroke="#1C222B" stroke-width="3" stroke-miterlimit="10" stroke-linecap="round" stroke-linejoin="round"/>
<path d="M44.0419 52.7875L48.1357 48.4701" stroke="#1C222B" stroke-width="3" stroke-miterlimit="10" stroke-linecap="round" stroke-linejoin="round"/>
<path d="M14.5342 68.9698C14.5342 68.9698 14.1878 56.4789 2.00075 55.8527" stroke="#1C222B" stroke-width="3" stroke-miterlimit="10"/>
</svg>
