<svg width="78" height="97" viewBox="0 0 78 97" fill="none" xmlns="http://www.w3.org/2000/svg">
<path d="M76.2586 37.1151C76.2912 40.5047 75.1831 43.5359 72.8364 45.9804C70.5223 48.3922 69.4141 51.2278 69.2512 54.5197C68.86 61.8205 63.8733 66.8072 56.5074 67.1657C53.3133 67.3287 50.6732 68.4368 48.3266 70.5228C42.688 75.5421 35.7457 75.5095 30.2049 70.4576C27.9886 68.4368 25.4464 67.3287 22.4478 67.1657C14.6581 66.742 9.80182 61.9182 9.31292 54.1611C9.11737 51.0974 8.10699 48.49 5.95586 46.1759C0.903971 40.7329 0.871379 33.5625 5.89068 28.0543C8.0418 25.7076 9.08477 23.0024 9.31292 19.8735C9.867 12.0838 14.7233 7.42302 22.5782 7.03191C25.4138 6.90153 27.8583 5.85856 29.9768 3.93559C35.8435 -1.31186 42.7532 -1.31186 48.6525 3.93559C50.9014 5.95634 53.5088 6.93413 56.5074 7.0645C63.7104 7.35784 68.9578 12.4749 69.3164 19.6779C69.4793 23.0024 70.5549 25.8054 72.9016 28.2173C75.1831 30.6943 76.2586 33.7254 76.2586 37.1151ZM4.48918 37.2455C4.424 40.0159 5.59734 42.5907 7.68328 44.7418C10.0626 47.1863 11.2359 50.1196 11.4966 53.4767C12.0507 60.6797 15.5382 64.2649 22.7412 64.8842C26.196 65.1775 29.1294 66.3509 31.6716 68.7301C36.528 73.2606 42.2317 73.2932 47.1532 68.8605C49.7932 66.4813 52.857 65.3079 56.377 65.1775C62.0807 64.982 66.5786 61.0056 67.0023 55.2693C67.3282 50.9671 68.7297 47.4144 71.6304 44.1877C75.1505 40.244 75.2808 34.3773 71.7934 30.4988C68.7297 27.0765 67.3282 23.3283 66.9697 18.8305C66.546 13.4853 62.2437 9.57415 56.8985 9.346C52.9873 9.18304 49.6629 7.87932 46.7295 5.2393C42.688 1.5889 36.8213 1.19779 32.6494 4.65263C29.1946 7.48821 25.5442 8.95488 21.1115 9.31341C15.7337 9.73711 11.8226 14.2349 11.5944 19.6453C11.4315 23.3935 10.2581 26.6854 7.61809 29.4232C5.56474 31.4439 4.48918 33.9862 4.48918 37.2455Z" fill="#1C222B"/>
<path d="M39.6244 63.8739C26.6851 63.9064 15.082 54.1938 13.2894 41.7433C11.2686 27.8262 18.765 15.832 31.9651 11.7579C44.2852 7.97712 57.8438 14.1046 63.4172 25.9684C63.6779 26.555 64.069 27.1417 64.1342 27.761C64.1994 28.3802 63.9387 28.9995 63.8083 29.6188C63.2868 29.2928 62.5372 29.0647 62.2439 28.5758C61.4942 27.3373 61.0379 25.9684 60.3209 24.7298C54.6497 15.1149 42.9163 10.6171 32.291 13.8764C21.2095 17.2987 13.9087 27.6306 14.6909 38.7122C15.6035 51.5212 26.6199 61.7879 39.2985 61.6249C52.2053 61.462 62.8957 51.0975 63.5802 38.1255C63.6128 37.4085 64.395 36.7566 64.8187 36.0722C65.1446 36.8218 65.7965 37.5714 65.7965 38.3211C65.4054 52.4338 53.7371 63.8087 39.6244 63.8739Z" fill="#1C222B"/>
<path d="M27.9561 50.4456C28.445 47.8708 29.1294 44.97 29.5205 42.0693C29.6509 41.1893 29.2598 39.9507 28.6731 39.2989C26.6849 37.1152 24.4686 35.1596 22.4153 33.041C21.959 32.5847 21.8286 31.8351 21.5679 31.2159C22.1219 30.9551 22.676 30.5966 23.2301 30.4988C26.0657 30.0425 28.9338 29.7166 31.7694 29.1299C32.6494 28.9343 33.6924 28.2173 34.1161 27.4351C35.5502 24.958 36.7235 22.318 38.0598 19.7758C38.3532 19.1891 38.9724 18.4395 39.4613 18.4069C39.9176 18.4069 40.6021 19.1565 40.8954 19.7106C42.1991 22.2528 43.3399 24.9254 44.7414 27.4351C45.1651 28.2173 46.2081 28.9343 47.0881 29.1299C49.9888 29.7166 52.9222 30.0099 55.8229 30.4988C56.377 30.5966 56.8985 31.0203 57.42 31.281C57.1267 31.8351 56.9637 32.4544 56.5726 32.8781C54.5518 34.9314 52.5637 37.0174 50.3799 38.9078C49.174 39.9507 48.9459 41.0263 49.2718 42.493C49.8259 45.1656 50.2822 47.8708 50.7059 50.576C50.8036 51.1627 50.5755 51.7819 50.5103 52.4012C49.9236 52.3034 49.2392 52.3686 48.7503 52.1079C46.1103 50.8041 43.568 49.3049 40.8628 48.0989C40.048 47.7404 38.7769 47.7404 37.9621 48.0989C35.2895 49.3049 32.7146 50.8042 30.1072 52.1405C28.3798 52.9879 27.7931 52.5642 27.9561 50.4456ZM39.4287 21.7965C38.125 24.4691 37.0495 26.881 35.7132 29.1625C35.2243 30.0099 34.1487 30.7921 33.2035 31.0203C30.5961 31.607 27.9235 31.9003 25.1531 32.324C27.0435 34.2796 28.6405 36.1374 30.4331 37.767C31.7694 38.9729 32.1931 40.1789 31.7694 41.9389C31.1828 44.3508 30.922 46.8278 30.4657 49.6308C33.2035 48.1967 35.5828 47.0234 37.8969 45.7197C39.0376 45.0678 39.9502 45.1004 41.091 45.7523C43.4051 47.056 45.8169 48.2293 48.4896 49.6308C48.0007 46.7626 47.6421 44.3508 47.1207 41.9715C46.7295 40.2441 47.0555 39.0381 48.4244 37.7996C50.2822 36.17 51.9444 34.2796 53.8022 32.3566C50.9014 31.9003 48.1636 31.607 45.5236 31.0203C44.6436 30.8247 43.6658 30.0751 43.2095 29.2929C41.8406 26.9462 40.7651 24.5017 39.4287 21.7965Z" fill="#1C222B"/>
<path d="M10.0584 69.0909L2.49561 86.1279L15.9549 81.4669L21.0181 95L29.1898 77.6416" stroke="#1C222B" stroke-width="3" stroke-miterlimit="10" stroke-linecap="round" stroke-linejoin="round"/>
<path d="M68.4888 69.0909L76.2977 86.1279L62.4592 81.4669L57.2203 95L48.8184 77.6416" stroke="#1C222B" stroke-width="3" stroke-miterlimit="10" stroke-linecap="round" stroke-linejoin="round"/>
</svg>
