<svg width="99" height="99" viewBox="0 0 99 99" fill="none" xmlns="http://www.w3.org/2000/svg">
<path d="M11.5259 17.7227C14.5674 20.8672 17.1449 23.4963 19.6192 26.1768C20.0316 26.6408 20.0316 27.6202 20.1347 28.3419C20.5987 32.5175 24.0525 35.5589 28.1765 35.4558C32.1458 35.3527 35.4965 32.0535 35.7027 28.0326C35.9089 23.9086 32.816 20.4548 28.692 19.8362C27.4548 19.6816 26.1661 18.9599 25.2382 18.1351C22.9184 16.1246 20.8049 13.8565 18.1758 11.279C22.2998 11.0212 25.9083 10.7119 29.5683 10.5057C34.9811 10.1964 40.3938 9.99024 45.7549 9.5263C49.1572 9.217 51.8894 10.1964 54.3122 12.6193C67.612 26.0222 81.015 39.322 94.3663 52.725C98.2841 56.6427 98.2841 60.9729 94.3663 64.8907C84.6234 74.6851 74.8805 84.4796 65.0861 94.2225C61.4261 97.8825 56.9412 97.9341 53.2812 94.3256C39.6721 80.768 26.0114 67.2104 12.5569 53.4466C11.062 51.9517 9.87634 49.3742 9.92789 47.3638C10.1341 37.8271 10.9073 28.2388 11.5259 17.7227ZM68.3337 48.2401C64.0036 48.2401 60.3951 51.797 60.3951 56.0241C60.3951 60.3027 64.0551 63.8597 68.3337 63.8597C72.6124 63.8081 76.1693 60.1997 76.1177 55.921C76.0662 51.7971 72.5093 48.2917 68.3337 48.2401ZM51.9925 56.0757C52.044 51.694 48.5902 48.2401 44.2085 48.2401C39.9814 48.2401 36.476 51.6424 36.4244 55.8695C36.3213 60.1996 39.7752 63.8081 44.1054 63.8597C48.4871 63.9112 51.9925 60.4574 51.9925 56.0757Z" stroke="#1C222B" stroke-width="3" stroke-miterlimit="10"/>
<path d="M23.5369 26.0737C23.3822 25.816 22.9698 24.8365 22.2997 24.1148C16.1137 17.8258 9.82468 11.6398 3.58716 5.4023C3.27786 5.093 2.81391 4.83523 2.71081 4.47438C2.45306 3.70113 2.34996 2.8248 2.19531 2C3.07166 2.15465 4.2573 2.05157 4.82435 2.56707C8.53593 6.124 12.1444 9.78401 15.7529 13.444C18.6912 16.4339 21.6296 19.4238 24.671 22.3106C25.238 22.8776 26.269 23.2385 27.0938 23.2385C30.2384 23.1354 32.3004 24.6819 32.455 27.414C32.6097 29.9915 30.4446 32.2082 27.8155 32.2082C25.0318 32.1566 23.2792 30.0946 23.5369 26.0737Z" stroke="#1C222B" stroke-width="3" stroke-miterlimit="10"/>
<path d="M48.7448 56.1272C48.7448 53.5497 46.7859 51.5393 44.26 51.5393C41.7341 51.5393 39.7236 53.5497 39.7236 56.0757C39.7752 58.447 41.7341 60.4574 44.1054 60.5089C46.6828 60.612 48.7448 58.6531 48.7448 56.1272Z" stroke="#1C222B" stroke-width="3" stroke-miterlimit="10"/>
<path d="M63.8494 55.8178C63.9525 53.1888 65.9114 51.4361 68.592 51.5907C71.1179 51.7454 72.8706 53.6011 72.819 56.1271C72.7675 58.653 70.7055 60.6119 68.1796 60.5604C65.6536 60.5088 63.6947 58.3437 63.8494 55.8178Z" stroke="#1C222B" stroke-width="3" stroke-miterlimit="10"/>
<path d="M48.745 56.1271C48.745 58.6531 46.683 60.612 44.1571 60.5604C41.7342 60.5089 39.7754 58.4984 39.7754 56.1271C39.7238 53.6012 41.7858 51.5908 44.3117 51.5908C46.7861 51.5392 48.745 53.5496 48.745 56.1271Z" stroke="#1C222B" stroke-width="3" stroke-miterlimit="10"/>
<path d="M56.3228 73.2417C55.7042 73.2417 55.2402 72.7262 55.2402 72.1592V39.2189C55.2402 38.6003 55.7557 38.1364 56.3228 38.1364C56.9414 38.1364 57.4053 38.6518 57.4053 39.2189V72.1592C57.4053 72.7778 56.9414 73.2417 56.3228 73.2417Z" stroke="#1C222B" stroke-width="2" stroke-miterlimit="10"/>
</svg>
